<?xml version="1.0" encoding="utf-8"?>
<!-- Generator: Adobe Illustrator 23.0.4, SVG Export Plug-In . SVG Version: 6.00 Build 0)  -->
<svg version="1.1" id="Layer_1" xmlns="http://www.w3.org/2000/svg" xmlns:xlink="http://www.w3.org/1999/xlink" x="0px" y="0px"
	 viewBox="0 0 100 83.6" style="enable-background:new 0 0 100 83.6;" xml:space="preserve">
<style type="text/css">
	.st0{fill:#F4F4F4;}
</style>
<title>si</title>
<g id="XMLID_1_">
	<g>
		<path class="st0" d="M95.4,24.6L81,70.5c-0.8,1.6-2,3-3.5,4c-1.5,1-3.2,1.6-5,1.7H13c-4.1,0-7.5-3.3-7.5-7.4v-40
			c0-0.2,0-0.3,0-0.5V12.7c0-3.3,2.7-6,6-6H27c3.3,0,6,2.7,6,6V16h39.5c4.1,0,7.5,3.3,7.5,7.5v1.1H95.4z M76.5,68.4l12.1-38.8H30.9
			L16.6,71.2h55.2C73.7,71.3,75.6,70.2,76.5,68.4z M75,24.6v-1.1c0-1.4-1.1-2.5-2.5-2.5H28v-8.3c0-0.6-0.5-1-1-1H11.5
			c-0.6,0-1,0.4-1,1l0,56c0,0.7,0.4,1.4,0.9,1.9l15.9-46.1H75z"/>
	</g>
	<g>
	</g>
</g>
</svg>
