<?xml version="1.0" encoding="utf-8"?>
<!-- Generator: Adobe Illustrator 23.0.3, SVG Export Plug-In . SVG Version: 6.00 Build 0)  -->
<svg version="1.1" id="Layer_1" xmlns="http://www.w3.org/2000/svg" xmlns:xlink="http://www.w3.org/1999/xlink" x="0px" y="0px"
	 viewBox="0 0 800 800" style="enable-background:new 0 0 800 800;" xml:space="preserve">
<style type="text/css">
	.st0{fill:#F9F7ED;}
</style>
<g>
	<path d="M-146,263"/>
	<path d="M-200,50"/>
	<rect class="st0" width="800" height="800"/>
</g>
<g>
	<g>
		<path d="M554.13,731h-31c-7.09,0-13.1-5.23-14.1-12.27l-5.11-35.87c-13.99-3.61-27.23-9.28-39.53-16.92L435.6,687.6
			c-5.67,4.27-13.61,3.7-18.62-1.33l-21.92-21.99c-5.01-5.03-5.58-12.99-1.32-18.67l21.99-29.41c-7.3-12.36-12.65-25.59-15.98-39.53
			l-35.97-5.15c-7.02-1-12.23-7.03-12.23-14.14v-31.09c0-7.11,5.21-13.14,12.23-14.14l36.36-5.21c3.49-13.91,9-27.08,16.44-39.36
			l-21.74-29.08c-4.26-5.68-3.69-13.65,1.32-18.67l21.92-21.98c5.01-5.03,12.95-5.59,18.62-1.33l29.09,21.88
			c12.4-7.5,25.7-13.01,39.73-16.46l5.05-35.47c1-7.04,7.01-12.27,14.1-12.27h31c7.09,0,13.1,5.23,14.1,12.27l5.05,35.48
			c14.15,3.51,27.8,9.2,40.28,16.8l28.09-21.13c5.68-4.27,13.61-3.7,18.62,1.33l21.92,21.98c5.01,5.03,5.58,12.99,1.32,18.67
			l-21.14,28.26c7.6,12.67,13.27,26.54,16.71,40.9l34.38,4.93c7.02,1,12.23,7.03,12.23,14.14v31.09c0,7.11-5.21,13.14-12.23,14.14
			l-34.76,4.98c-3.61,14.31-9.44,28.12-17.19,40.7l20.9,27.95c4.26,5.69,3.69,13.65-1.32,18.67l-21.92,21.98
			c-5.01,5.03-12.95,5.59-18.62,1.33l-28.41-21.38c-12.56,7.44-26.28,12.98-40.46,16.33l-5,35.09
			C567.22,725.77,561.22,731,554.13,731z M535.48,702.43h6.29l4.68-32.86c0.89-6.22,5.71-11.12,11.89-12.09
			c17.31-2.73,33.42-9.21,47.87-19.27c5.04-3.51,11.76-3.39,16.67,0.31l26.44,19.88l4.45-4.46l-19.54-26.14
			c-3.75-5.01-3.8-11.89-0.13-16.96c10.27-14.2,17.29-30.79,20.3-47.99c1.06-6.09,5.91-10.8,12.02-11.68l32.36-4.64v-6.31l-32.1-4.6
			c-6.17-0.89-11.05-5.68-12.05-11.85c-2.8-17.25-9.61-33.93-19.69-48.24c-3.57-5.06-3.48-11.86,0.23-16.82l19.7-26.35l-4.45-4.46
			l-26.21,19.71c-4.96,3.73-11.77,3.82-16.81,0.21c-14.31-10.23-30.34-16.91-47.63-19.86c-6.11-1.04-10.84-5.92-11.72-12.07
			l-4.71-33.13h-6.29l-4.71,33.13c-0.88,6.15-5.61,11.02-11.72,12.07c-17.09,2.91-32.96,9.49-47.17,19.53
			c-5.05,3.57-11.82,3.47-16.75-0.25l-27.18-20.45l-4.45,4.46l20.33,27.19c3.72,4.97,3.8,11.78,0.22,16.85
			c-10,14.11-16.59,29.87-19.58,46.85c-1.08,6.07-5.92,10.78-12.01,11.65l-33.95,4.86v6.31l33.68,4.83
			c6.16,0.88,11.03,5.67,12.04,11.83c2.8,17.02,9.19,32.86,19,47.08c3.49,5.05,3.36,11.78-0.32,16.7l-20.51,27.43l4.45,4.46
			l26.97-20.29c5-3.76,11.84-3.81,16.9-0.14c14.09,10.23,29.87,17,46.92,20.13c6.02,1.1,10.67,5.95,11.54,12.03L535.48,702.43z"/>
	</g>
	<g>
		<path d="M539.41,633.05c-49.73,0-90.2-40.58-90.2-90.47c0-49.88,40.46-90.47,90.2-90.47c49.73,0,90.2,40.58,90.2,90.47
			C629.6,592.47,589.14,633.05,539.41,633.05z M539.41,480.7c-34.02,0-61.71,27.77-61.71,61.89c0,34.12,27.68,61.89,61.71,61.89
			c34.02,0,61.71-27.77,61.71-61.89C601.11,508.47,573.43,480.7,539.41,480.7z"/>
	</g>
	<g>
		<path d="M539.41,583.66c-22.58,0-40.95-18.43-40.95-41.08s18.37-41.08,40.95-41.08c22.58,0,40.95,18.43,40.95,41.08
			C580.36,565.24,561.99,583.66,539.41,583.66z M539.41,530.08c-6.87,0-12.46,5.61-12.46,12.5s5.59,12.5,12.46,12.5
			c6.87,0,12.46-5.61,12.46-12.5S546.28,530.08,539.41,530.08z"/>
	</g>
	<g>
		<path d="M251.96,409.54h-27.43c-7.09,0-13.1-5.23-14.1-12.27l-4.37-30.65c-11.78-3.15-22.96-7.93-33.41-14.3l-24.56,18.47
			c-5.67,4.27-13.61,3.7-18.62-1.33l-19.39-19.45c-5.01-5.03-5.58-12.99-1.32-18.67l18.8-25.14c-6.07-10.47-10.58-21.64-13.5-33.38
			l-30.72-4.4c-7.02-1-12.23-7.04-12.23-14.14v-27.51c0-7.11,5.21-13.14,12.23-14.14l31.08-4.46c3.05-11.71,7.69-22.83,13.88-33.24
			l-18.56-24.84c-4.26-5.68-3.69-13.65,1.32-18.67l19.39-19.45c5.01-5.03,12.95-5.59,18.62-1.33l24.85,18.7
			c10.51-6.24,21.75-10.9,33.58-13.91l4.32-30.27c1-7.04,7.01-12.27,14.1-12.27h27.43c7.09,0,13.1,5.23,14.1,12.27l4.32,30.3
			c11.93,3.07,23.46,7.88,34.06,14.2l23.96-18.02c5.68-4.27,13.61-3.7,18.62,1.33l19.39,19.45c5.01,5.03,5.58,12.99,1.32,18.67
			l-18.03,24.12c6.34,10.77,11.12,22.48,14.14,34.6l29.31,4.2c7.02,1,12.23,7.04,12.23,14.14v27.5c0,7.11-5.21,13.14-12.23,14.14
			l-29.67,4.25c-3.16,12.08-8.07,23.73-14.54,34.44l17.83,23.83c4.26,5.68,3.68,13.64-1.32,18.67l-19.39,19.45
			c-5.01,5.03-12.95,5.59-18.62,1.33l-24.26-18.26c-10.67,6.2-22.25,10.88-34.21,13.81l-4.27,29.93
			C265.06,404.31,259.04,409.54,251.96,409.54z M236.89,380.97h2.71l3.94-27.65c0.89-6.22,5.71-11.12,11.89-12.09
			c15.07-2.37,29.09-8.02,41.67-16.78c5.04-3.51,11.76-3.39,16.67,0.31l22.25,16.74l1.92-1.93l-16.44-21.98
			c-3.75-5.01-3.8-11.89-0.13-16.96c8.95-12.36,15.05-26.8,17.67-41.77c1.06-6.09,5.92-10.8,12.02-11.68l27.22-3.9v-2.72
			l-26.99-3.87c-6.17-0.88-11.05-5.68-12.04-11.85c-2.44-15.02-8.36-29.53-17.14-41.99c-3.57-5.06-3.48-11.86,0.23-16.82
			l16.57-22.17l-1.92-1.93l-22.04,16.58c-4.96,3.73-11.76,3.82-16.81,0.21c-12.46-8.9-26.41-14.72-41.46-17.29
			c-6.11-1.04-10.84-5.92-11.72-12.07l-3.97-27.89h-2.71l-3.97,27.87c-0.88,6.15-5.61,11.02-11.72,12.07
			c-14.88,2.53-28.69,8.26-41.05,17c-5.05,3.57-11.82,3.47-16.75-0.25l-22.9-17.23l-1.93,1.93l17.14,22.91
			c3.72,4.97,3.81,11.78,0.22,16.85c-8.7,12.27-14.44,25.99-17.05,40.78c-1.07,6.08-5.92,10.78-12.01,11.65l-28.62,4.1v2.72
			l28.39,4.07c6.16,0.88,11.03,5.67,12.04,11.83c2.43,14.81,7.99,28.6,16.54,40.98c3.49,5.05,3.36,11.78-0.32,16.7l-17.29,23.12
			l1.92,1.93l22.72-17.09c5-3.76,11.84-3.82,16.9-0.14c12.27,8.9,26.01,14.8,40.84,17.52c6.02,1.1,10.67,5.95,11.54,12.03
			L236.89,380.97z"/>
	</g>
	<g>
		<path d="M238.93,322.9c-44.9,0-81.43-36.64-81.43-81.67s36.53-81.67,81.43-81.67s81.43,36.64,81.43,81.67
			S283.83,322.9,238.93,322.9z M238.93,188.11c-29.19,0-52.94,23.83-52.94,53.1s23.75,53.1,52.94,53.1s52.94-23.82,52.94-53.1
			S268.12,188.11,238.93,188.11z"/>
	</g>
	<g>
		<path d="M407.2,725.64c-87.63,0-170.02-34.22-231.98-96.38c-61.96-62.15-96.09-144.78-96.09-232.67c0-7.89,6.38-14.29,14.24-14.29
			c7.87,0,14.24,6.4,14.24,14.29c0,165.69,134.39,300.47,299.58,300.47c7.87,0,14.25,6.4,14.25,14.29
			C421.44,719.25,415.06,725.64,407.2,725.64z"/>
	</g>
	<g>
		<path d="M721.02,410.88c-7.87,0-14.24-6.4-14.24-14.29c0-165.68-134.39-300.48-299.58-300.48c-7.87,0-14.24-6.4-14.24-14.29
			s6.38-14.29,14.24-14.29c87.63,0,170.02,34.23,231.98,96.38s96.09,144.79,96.09,232.69C735.27,404.48,728.9,410.88,721.02,410.88z
			"/>
	</g>
</g>
</svg>
