<?xml version="1.0" encoding="utf-8"?>
<!-- Generator: Adobe Illustrator 23.0.3, SVG Export Plug-In . SVG Version: 6.00 Build 0)  -->
<svg version="1.1" id="Layer_1" xmlns="http://www.w3.org/2000/svg" xmlns:xlink="http://www.w3.org/1999/xlink" x="0px" y="0px"
	 viewBox="0 0 800 800" style="enable-background:new 0 0 800 800;" xml:space="preserve">
<style type="text/css">
	.st0{fill:#F9F7ED;}
</style>
<g>
	<path d="M-147.5,274.4"/>
	<path d="M-200,65.9"/>
	<path class="st0" d="M172,145c24.7-1.5,35.6-9.6,41-17c10.1-13.9,4.6-30.5,16-37c6.8-3.9,16.7-2.5,23,2c12.4,8.9,5.1,26,15.3,38.3
		c10.4,12.4,32.3,12.2,44.7,9.7c41.7-8.4,49.9-57.8,90.1-60.2c6.1-0.4,10.6,0.5,17.9,2.2c88.1,20,132.6,29.3,175,59
		c46.2,32.4,75,71.7,92,100c14.6,24.2,60.2,102.2,32.9,139.4c-8.7,11.9-23.3,17.6-45.9,46.6c-5.9,7.6-11.4,15.6-14,27
		c-3.2,14.1-0.1,26.1,2,35c3.1,13.3,5,21.5,12,27c12,9.5,24.6-0.1,35,9c8.5,7.5,11.1,23.5,5,32c-7.5,10.4-22.9,0.2-41,10
		c-16.1,8.8-28.5,30-25,47c3.4,16.8,20,18.5,21,34c0.9,13.5-10.6,29.1-22,30c-13.6,1.1-16.1-21.5-35-26c-16.7-4-39.8,7.5-48,24
		c-7.4,14.8-1.5,31.3-13,40c-4.1,3.1-8.7,3.9-9,4c-6.7,1.2-13.5-1.2-17.2-4.1c-11.2-9,0.1-28.1-7.8-42.9c-4.5-8.3-15.9-16.7-46-18
		c-13.3,1.8-32,6.5-46,21c-13.4,13.9-13,26.8-19,34c-12.3,14.7-56.8,11.6-192-60c-21.9-20.4-46.1-47.5-67.8-82.3
		c-29.8-47.7-74.5-119.4-50.6-176.6c12.9-30.8,37.2-37.1,41.4-74.1c2.2-19.6-1.2-48-16.7-55.6c-10.5-5.1-19.7,2.6-29.6-4.6
		c-9-6.6-13.5-21.9-8.3-29.9c6.7-10.1,23.6,0.2,40.5-11c11.9-7.9,20.7-24.5,18.2-38.4c-3.1-17.4-22.1-21.1-20.7-34
		c1-8.9,10.8-15.8,19.5-17.6C152.4,124.4,166,131.6,172,145z"/>
</g>
<g>
	<g>
		<path d="M554.1,731h-31c-7.1,0-13.1-5.2-14.1-12.3l-5.1-35.9c-14-3.6-27.2-9.3-39.5-16.9l-28.8,21.7c-5.7,4.3-13.6,3.7-18.6-1.3
			l-21.9-22c-5-5-5.6-13-1.3-18.7l22-29.4c-7.3-12.4-12.6-25.6-16-39.5l-36-5.2c-7-1-12.2-7-12.2-14.1v-31.1
			c0-7.1,5.2-13.1,12.2-14.1l36.4-5.2c3.5-13.9,9-27.1,16.4-39.4l-21.7-29.1c-4.3-5.7-3.7-13.6,1.3-18.7l21.9-22
			c5-5,13-5.6,18.6-1.3l29.1,21.9c12.4-7.5,25.7-13,39.7-16.5l5-35.5c1-7,7-12.3,14.1-12.3h31c7.1,0,13.1,5.2,14.1,12.3l5,35.5
			c14.2,3.5,27.8,9.2,40.3,16.8l28.1-21.1c5.7-4.3,13.6-3.7,18.6,1.3l21.9,22c5,5,5.6,13,1.3,18.7l-21.1,28.3
			c7.6,12.7,13.3,26.5,16.7,40.9l34.4,4.9c7,1,12.2,7,12.2,14.1v31.1c0,7.1-5.2,13.1-12.2,14.1l-34.8,5
			c-3.6,14.3-9.4,28.1-17.2,40.7l20.9,28c4.3,5.7,3.7,13.7-1.3,18.7l-21.9,22c-5,5-13,5.6-18.6,1.3l-28.4-21.4
			c-12.6,7.4-26.3,13-40.5,16.3l-5,35.1C567.2,725.8,561.2,731,554.1,731z M535.5,702.4h6.3l4.7-32.9c0.9-6.2,5.7-11.1,11.9-12.1
			c17.3-2.7,33.4-9.2,47.9-19.3c5-3.5,11.8-3.4,16.7,0.3l26.4,19.9l4.5-4.5l-19.5-26.1c-3.8-5-3.8-11.9-0.1-17
			c10.3-14.2,17.3-30.8,20.3-48c1.1-6.1,5.9-10.8,12-11.7l32.4-4.6v-6.3l-32.1-4.6c-6.2-0.9-11-5.7-12-11.8
			c-2.8-17.3-9.6-33.9-19.7-48.2c-3.6-5.1-3.5-11.9,0.2-16.8l19.7-26.4l-4.5-4.5l-26.2,19.7c-5,3.7-11.8,3.8-16.8,0.2
			c-14.3-10.2-30.3-16.9-47.6-19.9c-6.1-1-10.8-5.9-11.7-12.1l-4.7-33.1H537l-4.7,33.1c-0.9,6.1-5.6,11-11.7,12.1
			c-17.1,2.9-33,9.5-47.2,19.5c-5,3.6-11.8,3.5-16.8-0.3l-27.2-20.5l-4.5,4.5l20.3,27.2c3.7,5,3.8,11.8,0.2,16.9
			c-10,14.1-16.6,29.9-19.6,46.9c-1.1,6.1-5.9,10.8-12,11.7l-34,4.9v6.3l33.7,4.8c6.2,0.9,11,5.7,12,11.8c2.8,17,9.2,32.9,19,47.1
			c3.5,5,3.4,11.8-0.3,16.7L424,652.8l4.5,4.5l27-20.3c5-3.8,11.8-3.8,16.9-0.1c14.1,10.2,29.9,17,46.9,20.1c6,1.1,10.7,6,11.5,12
			L535.5,702.4z"/>
	</g>
	<g>
		<path d="M539.4,633c-49.7,0-90.2-40.6-90.2-90.5c0-49.9,40.5-90.5,90.2-90.5c49.7,0,90.2,40.6,90.2,90.5
			C629.6,592.5,589.1,633,539.4,633z M539.4,480.7c-34,0-61.7,27.8-61.7,61.9s27.7,61.9,61.7,61.9c34,0,61.7-27.8,61.7-61.9
			C601.1,508.5,573.4,480.7,539.4,480.7z"/>
	</g>
	<g>
		<path d="M539.4,583.7c-22.6,0-41-18.4-41-41.1s18.4-41.1,41-41.1s41,18.4,41,41.1C580.4,565.2,562,583.7,539.4,583.7z
			 M539.4,530.1c-6.9,0-12.5,5.6-12.5,12.5s5.6,12.5,12.5,12.5s12.5-5.6,12.5-12.5S546.3,530.1,539.4,530.1z"/>
	</g>
	<g>
		<path d="M252,409.5h-27.4c-7.1,0-13.1-5.2-14.1-12.3l-4.4-30.6c-11.8-3.1-23-7.9-33.4-14.3l-24.6,18.5c-5.7,4.3-13.6,3.7-18.6-1.3
			L110.1,350c-5-5-5.6-13-1.3-18.7l18.8-25.1c-6.1-10.5-10.6-21.6-13.5-33.4l-30.7-4.4c-7-1-12.2-7-12.2-14.1v-27.5
			c0-7.1,5.2-13.1,12.2-14.1l31.1-4.5c3.1-11.7,7.7-22.8,13.9-33.2l-18.6-24.8c-4.3-5.7-3.7-13.6,1.3-18.7l19.4-19.4
			c5-5,12.9-5.6,18.6-1.3l24.9,18.7c10.5-6.2,21.8-10.9,33.6-13.9l4.3-30.3c1-7,7-12.3,14.1-12.3h27.4c7.1,0,13.1,5.2,14.1,12.3
			l4.3,30.3c11.9,3.1,23.5,7.9,34.1,14.2l24-18c5.7-4.3,13.6-3.7,18.6,1.3l19.4,19.4c5,5,5.6,13,1.3,18.7l-18,24.1
			c6.3,10.8,11.1,22.5,14.1,34.6l29.3,4.2c7,1,12.2,7,12.2,14.1v27.5c0,7.1-5.2,13.1-12.2,14.1l-29.7,4.3
			c-3.2,12.1-8.1,23.7-14.5,34.4l17.8,23.8c4.3,5.7,3.7,13.6-1.3,18.7l-19.4,19.5c-5,5-13,5.6-18.6,1.3l-24.3-18.3
			c-10.7,6.2-22.3,10.9-34.2,13.8l-4.3,29.9C265.1,404.3,259,409.5,252,409.5z M236.9,381h2.7l3.9-27.6c0.9-6.2,5.7-11.1,11.9-12.1
			c15.1-2.4,29.1-8,41.7-16.8c5-3.5,11.8-3.4,16.7,0.3l22.3,16.7l1.9-1.9l-16.4-22c-3.8-5-3.8-11.9-0.1-17c9-12.4,15-26.8,17.7-41.8
			c1.1-6.1,5.9-10.8,12-11.7l27.2-3.9v-2.7l-27-3.9c-6.2-0.9-11-5.7-12-11.9c-2.4-15-8.4-29.5-17.1-42c-3.6-5.1-3.5-11.9,0.2-16.8
			l16.6-22.2l-1.9-1.9l-22,16.6c-5,3.7-11.8,3.8-16.8,0.2c-12.5-8.9-26.4-14.7-41.5-17.3c-6.1-1-10.8-5.9-11.7-12.1l-4-27.9h-2.7
			l-4,27.9c-0.9,6.1-5.6,11-11.7,12.1c-14.9,2.5-28.7,8.3-41.1,17c-5.1,3.6-11.8,3.5-16.8-0.3l-22.9-17.2l-1.9,1.9l17.1,22.9
			c3.7,5,3.8,11.8,0.2,16.9c-8.7,12.3-14.4,26-17.1,40.8c-1.1,6.1-5.9,10.8-12,11.6l-28.6,4.1v2.7l28.4,4.1c6.2,0.9,11,5.7,12,11.8
			c2.4,14.8,8,28.6,16.5,41c3.5,5,3.4,11.8-0.3,16.7L139,338.6l1.9,1.9l22.7-17.1c5-3.8,11.8-3.8,16.9-0.1
			c12.3,8.9,26,14.8,40.8,17.5c6,1.1,10.7,6,11.5,12L236.9,381z"/>
	</g>
	<g>
		<path d="M238.9,322.9c-44.9,0-81.4-36.6-81.4-81.7s36.5-81.7,81.4-81.7s81.4,36.6,81.4,81.7S283.8,322.9,238.9,322.9z
			 M238.9,188.1c-29.2,0-52.9,23.8-52.9,53.1s23.8,53.1,52.9,53.1s52.9-23.8,52.9-53.1S268.1,188.1,238.9,188.1z"/>
	</g>
	<g>
		<path d="M407.2,725.6c-87.6,0-170-34.2-232-96.4c-62-62.2-96.1-144.8-96.1-232.7c0-7.9,6.4-14.3,14.2-14.3
			c7.9,0,14.2,6.4,14.2,14.3c0,165.7,134.4,300.5,299.6,300.5c7.9,0,14.3,6.4,14.3,14.3C421.4,719.3,415.1,725.6,407.2,725.6z"/>
	</g>
	<g>
		<path d="M721,410.9c-7.9,0-14.2-6.4-14.2-14.3c0-165.7-134.4-300.5-299.6-300.5c-7.9,0-14.2-6.4-14.2-14.3s6.4-14.3,14.2-14.3
			c87.6,0,170,34.2,232,96.4s96.1,144.8,96.1,232.7C735.3,404.5,728.9,410.9,721,410.9z"/>
	</g>
</g>
<path d="M672,379"/>
</svg>
