<?xml version="1.0" encoding="utf-8"?>
<!-- Generator: Adobe Illustrator 23.0.3, SVG Export Plug-In . SVG Version: 6.00 Build 0)  -->
<svg version="1.1" id="Layer_1" xmlns="http://www.w3.org/2000/svg" xmlns:xlink="http://www.w3.org/1999/xlink" x="0px" y="0px"
	 viewBox="0 0 800 800" style="enable-background:new 0 0 800 800;" xml:space="preserve">
<style type="text/css">
	.st0{fill:#F9F7ED;}
</style>
<g>
	<path d="M64.8,238.8"/>
	<path d="M33,45.4"/>
	<path class="st0" d="M154,219c1.1-1.9,3.1-5.1,6.4-8.5c6.5-6.7,13.6-9.5,15.4-10.3C199.7,190,358.1,85.9,386.2,69.9
		c7.4-4.3,15-7.8,15-7.8s2.5-1.1,5-2.2c37.8-16.3,98-15.7,98-15.7c36.2,0.3,74.2,0.1,118.8,0c0,156.3,0,312.7,0,469
		c-53.4,42.3-94,77.1-121.8,101.5c-31.9,28.1-70.7,48.9-97.9,81.6c-5.9,7.1-18.6,23.1-40.4,30.1c-15.5,5-25.5,2.1-47.8,0
		c-25.9-2.4-18.7,0.8-94.8,0.8c-15.4,0-38.3-0.1-66.3-0.8C154,557.2,154,388.1,154,219z"/>
</g>
<path d="M409.6,44.3L160.3,210.5h205.4L598.5,44.3H409.6z M612.9,44.3L371.3,216.9v505.9l251.5-209.7V44.3H612.9z M591.9,105.5
	c1,0.3,1.6,1.1,1.6,2.7c0,3.1-2.5,7.3-5.6,9.6c-3,2.3-5.6,1.7-5.6-1.3s2.5-7.3,5.6-9.6C589.4,105.7,590.9,105.3,591.9,105.5z
	 M575.3,117.8c1,0.3,1.6,1.1,1.6,2.7c0,3.1-2.5,7.3-5.6,9.6c-3,2.3-5.6,1.7-5.6-1.3s2.5-7.3,5.6-9.6
	C572.9,118,574.3,117.5,575.3,117.8z M591.9,122.1c1,0.3,1.6,1.1,1.6,2.7c0,3.1-2.5,7.6-5.6,9.9c-3,2.3-5.6,1.4-5.6-1.6
	s2.5-7.3,5.6-9.6C589.4,122.3,590.9,121.8,591.9,122.1z M558.6,130.1c1,0.3,1.6,1.1,1.6,2.7c0,3.1-2.3,7.6-5.3,9.9s-5.6,1.4-5.6-1.6
	s2.5-7.3,5.6-9.6C556.3,130.3,557.6,129.8,558.6,130.1z M575.3,134.3c1,0.3,1.6,1.4,1.6,2.9c0,3.1-2.5,7.3-5.6,9.6
	c-3,2.3-5.6,1.4-5.6-1.6s2.5-7.3,5.6-9.6C572.9,134.5,574.3,134.1,575.3,134.3z M591.3,138.6c1.3,0.1,2.1,1.2,2.1,2.9
	c0,3.1-2.5,7.3-5.6,9.6c-3,2.3-5.6,1.4-5.6-1.6s2.5-7.3,5.6-9.6c0.8-0.6,1.5-0.9,2.1-1.1C590.5,138.7,590.9,138.5,591.3,138.6z
	 M542,142.3c1,0.3,1.6,1.1,1.6,2.7c0,3.1-2.5,7.6-5.6,9.9c-3,2.3-5.3,1.4-5.3-1.6s2.3-7.3,5.3-9.6C539.6,142.5,541,142.1,542,142.3z
	 M558.6,146.6c1,0.3,1.6,1.4,1.6,2.9c0,3.1-2.3,7.3-5.3,9.6s-5.6,1.4-5.6-1.6s2.5-7.3,5.6-9.6C556.3,146.8,557.6,146.3,558.6,146.6z
	 M574.8,150.8c1.3,0.1,2.1,1.2,2.1,2.9c0,3.1-2.5,7.3-5.6,9.6c-3,2.3-5.6,1.7-5.6-1.3s2.5-7.6,5.6-9.9c0.8-0.6,1.5-0.9,2.1-1.1
	C574,150.9,574.4,150.8,574.8,150.8z M525.5,154.6c1,0.3,1.6,1.4,1.6,2.9c0,3.1-2.5,7.3-5.6,9.6c-3,2.3-5.6,1.4-5.6-1.6
	s2.5-7.3,5.6-9.6C523,154.8,524.5,154.3,525.5,154.6z M591.3,155.1c1.3,0.1,2.1,1.2,2.1,2.9c0,3.1-2.5,7.3-5.6,9.6
	c-3,2.3-5.6,1.7-5.6-1.3s2.5-7.3,5.6-9.6c0.8-0.6,1.5-1.1,2.1-1.3C590.5,155.2,590.9,155.1,591.3,155.1z M541.8,158.8
	c1.2,0.1,1.9,1.2,1.9,2.9c0,3.1-2.5,7.3-5.6,9.6c-3,2.3-5.3,1.4-5.3-1.6s2.3-7.3,5.3-9.6c0.8-0.6,1.7-0.9,2.4-1.1
	C540.9,158.9,541.4,158.8,541.8,158.8z M558.3,163.1c1.2,0.1,1.9,1.2,1.9,2.9c0,3.1-2.3,7.3-5.3,9.6s-5.6,1.7-5.6-1.3
	s2.5-7.6,5.6-9.9c0.8-0.6,1.5-0.9,2.1-1.1C557.5,163.2,557.9,163,558.3,163.1z M509,166.8c1,0.3,1.6,1.4,1.6,2.9
	c0,3.1-2.5,7.3-5.6,9.6s-5.6,1.4-5.6-1.6s2.5-7.3,5.6-9.6C506.5,167,508,166.6,509,166.8z M574.8,167.4c1.3,0.1,2.1,1.2,2.1,2.9
	c0,3.1-2.5,7.3-5.6,9.6s-5.6,1.7-5.6-1.3s2.5-7.3,5.6-9.6c0.8-0.6,1.5-1.1,2.1-1.3C574,167.5,574.4,167.3,574.8,167.4z M525,171.1
	c1.3,0.1,2.1,1.2,2.1,2.9c0,3.1-2.5,7.3-5.6,9.6s-5.6,1.7-5.6-1.3s2.5-7.6,5.6-9.9c0.8-0.6,1.5-0.9,2.1-1.1
	C524.2,171.2,524.6,171,525,171.1z M591.3,171.6c1.3,0.1,2.1,1.2,2.1,2.9c0,3.1-2.5,7.3-5.6,9.6c-3,2.3-5.6,1.7-5.6-1.3
	s2.5-7.3,5.6-9.6c0.8-0.6,1.5-1.1,2.1-1.3C590.5,171.7,590.9,171.6,591.3,171.6z M541.8,175.3c1.2,0.1,1.9,1.2,1.9,2.9
	c0,3.1-2.5,7.3-5.6,9.6s-5.3,1.7-5.3-1.3s2.3-7.3,5.3-9.6c0.8-0.6,1.7-1.1,2.4-1.3C540.9,175.4,541.4,175.3,541.8,175.3z
	 M558.3,179.6c1.2,0.1,1.9,1.2,1.9,2.9c0,3.1-2.3,7.3-5.3,9.6s-5.6,1.7-5.6-1.3s2.5-7.3,5.6-9.6c0.8-0.6,1.5-1.1,2.1-1.3
	C557.5,179.7,557.9,179.6,558.3,179.6z M508.5,183.3c1.3,0.1,2.1,1.2,2.1,2.9c0,3.1-2.5,7.3-5.6,9.6s-5.6,1.7-5.6-1.3
	s2.5-7.6,5.6-9.9c0.8-0.6,1.5-0.9,2.1-1.1C507.6,183.4,508,183.3,508.5,183.3z M575.3,184.1c1,0.3,1.6,1.1,1.6,2.7
	c0,3.1-2.5,7.3-5.6,9.6c-3,2.3-5.6,1.7-5.6-1.3s2.5-7.3,5.6-9.6C572.9,184.3,574.3,183.9,575.3,184.1z M525,187.6
	c1.3,0.1,2.1,1.2,2.1,2.9c0,3.1-2.5,7.3-5.6,9.6c-3,2.3-5.6,1.7-5.6-1.3s2.5-7.3,5.6-9.6c0.8-0.6,1.5-1.1,2.1-1.3
	C524.2,187.7,524.6,187.6,525,187.6z M541.8,191.9c1.2,0.1,1.9,1.2,1.9,2.9c0,3.1-2.5,7.3-5.6,9.6c-3,2.3-5.3,1.7-5.3-1.3
	s2.3-7.3,5.3-9.6c0.8-0.6,1.7-1.1,2.4-1.3C540.9,192,541.4,191.8,541.8,191.9z M558.6,196.4c1,0.3,1.6,1.1,1.6,2.7
	c0,3.1-2.3,7.3-5.3,9.6s-5.6,1.7-5.6-1.3s2.5-7.3,5.6-9.6C556.3,196.6,557.6,196.1,558.6,196.4z M508.5,199.9
	c1.3,0.1,2.1,1.2,2.1,2.9c0,3.1-2.5,7.3-5.6,9.6s-5.6,1.7-5.6-1.3s2.5-7.3,5.6-9.6c0.8-0.6,1.5-1.1,2.1-1.3
	C507.6,200,508,199.8,508.5,199.9z M525.5,204.4c1,0.3,1.6,1.1,1.6,2.7c0,3.1-2.5,7.3-5.6,9.6c-3,2.3-5.6,1.7-5.6-1.3
	s2.5-7.3,5.6-9.6C523,204.6,524.5,204.1,525.5,204.4z M542,208.6c1,0.3,1.6,1.1,1.6,2.7c0,3.1-2.5,7.6-5.6,9.9s-5.3,1.4-5.3-1.6
	s2.3-7.3,5.3-9.6C539.6,208.8,541,208.4,542,208.6z M509,216.6c1,0.3,1.6,1.1,1.6,2.7c0,3.1-2.5,7.3-5.6,9.6s-5.6,1.7-5.6-1.3
	s2.5-7.3,5.6-9.6C506.5,216.8,508,216.4,509,216.6z M153.9,219v507.2h208.9V219H153.9z M525.5,220.9c1,0.3,1.6,1.4,1.6,2.9
	c0,3.1-2.5,7.3-5.6,9.6c-3,2.3-5.6,1.4-5.6-1.6s2.5-7.3,5.6-9.6C523,221.1,524.5,220.6,525.5,220.9z M509,233.1
	c1,0.3,1.6,1.4,1.6,2.9c0,3.1-2.5,7.3-5.6,9.6s-5.6,1.4-5.6-1.6s2.5-7.3,5.6-9.6C506.5,233.4,508,232.9,509,233.1z M179.5,257.4
	h153.4V283H179.5V257.4z M179.5,291.5h153.4v25.6H179.5V291.5z M179.5,325.6h153.4v25.6H179.5V325.6z M179.5,359.7h153.4v25.6H179.5
	V359.7z M311.6,393.8c0.7-0.1,1.3,0.1,1.9,0.5c0.1,0.1,0.2,0.2,0.3,0.3c0.1,0.1,0.2,0.2,0.3,0.3c0.4,0.5,0.6,1.2,0.5,1.9v16
	c0,0.6-0.2,1.1-0.5,1.6c-0.1,0.1-0.2,0.2-0.3,0.3c-0.2,0.2-0.5,0.4-0.8,0.5c-0.9,0.4-1.9,0.3-2.7-0.3c-0.1-0.1-0.2-0.2-0.3-0.3
	c-0.1-0.1-0.2-0.2-0.3-0.3c-0.4-0.5-0.5-1-0.5-1.6v-16c0-0.6,0.2-1.1,0.5-1.6c0.1-0.1,0.2-0.2,0.3-0.3c0.1-0.1,0.2-0.2,0.3-0.3
	c0.3-0.3,0.7-0.4,1.1-0.5C311.4,394,311.5,393.9,311.6,393.8z M304.7,401.3c1.5-0.3,3,0.7,3.3,2.3c0.3,1.5-0.7,3-2.3,3.3l0,0
	c-0.9,0.6-1.8,1.5-2.4,2.4c-3.5,4.8-2.4,11.4,2.4,14.9s11.4,2.4,14.9-2.4s2.4-11.4-2.4-14.9c-0.1-0.1-0.2-0.2-0.3-0.3
	c-0.2-0.2-0.4-0.5-0.5-0.8c-0.3-0.7-0.3-1.5,0-2.1c0.1-0.3,0.3-0.6,0.5-0.8c0.1-0.1,0.2-0.2,0.3-0.3c0.4-0.3,0.9-0.5,1.3-0.5
	c0.7-0.1,1.3,0.1,1.9,0.5c7.1,5.2,8.7,15.3,3.5,22.4c-5.2,7.1-15.3,8.7-22.4,3.5c-7.1-5.2-8.7-15.3-3.5-22.4
	c0.9-1.3,1.9-2.5,3.2-3.5c0.2-0.1,0.4-0.2,0.5-0.3c0.1-0.1,0.2-0.2,0.3-0.3c0.1-0.1,0.2-0.2,0.3-0.3c0.2-0.1,0.4-0.2,0.5-0.3
	C304.1,401.4,304.4,401.3,304.7,401.3z M196.5,402.3c4.7,0,8.5,3.8,8.5,8.5s-3.8,8.5-8.5,8.5s-8.5-3.8-8.5-8.5
	S191.8,402.3,196.5,402.3z M221.6,402.3c4.7,0,8.5,3.8,8.5,8.5s-3.8,8.5-8.5,8.5c-4.7,0-8.5-3.8-8.5-8.5S216.8,402.3,221.6,402.3z
	 M167.7,594.1c0.1,0,0.2,0,0.3,0c0.1,0,0.2,0,0.3,0c0.1,0,0.2,0,0.3,0c0.1,0,0.2,0,0.3,0c0.1,0,0.2,0,0.3,0c0.2,0,0.4,0,0.5,0
	c0.2,0,0.4,0,0.5,0c0.3,0,0.5,0,0.8,0h170.5c2.4,0,4.3,1.8,4.3,4.2c0,2.3-1.9,4.3-4.2,4.3c0,0-0.1,0-0.1,0H171
	c-2.4,0.9-5-0.3-5.9-2.7C164.2,597.6,165.4,595,167.7,594.1z M167.7,611.2c0.1,0,0.2,0,0.3,0c0.1,0,0.2,0,0.3,0c0.1,0,0.2,0,0.3,0
	c0.1,0,0.2,0,0.3,0c0.1,0,0.2,0,0.3,0c0.2,0,0.4,0,0.5,0c0.2,0,0.4,0,0.5,0c0.3,0,0.5,0,0.8,0h170.5c2.4,0,4.3,1.8,4.3,4.2
	c0,2.3-1.9,4.3-4.2,4.3c0,0-0.1,0-0.1,0H171c-2.4,0.9-5-0.3-5.9-2.7S165.4,612.1,167.7,611.2z M167.7,628.2c0.1,0,0.2,0,0.3,0
	c0.1,0,0.2,0,0.3,0c0.1,0,0.2,0,0.3,0c0.1,0,0.2,0,0.3,0c0.1,0,0.2,0,0.3,0c0.2,0,0.4,0,0.5,0c0.2,0,0.4,0,0.5,0c0.3,0,0.5,0,0.8,0
	h170.5c2.4,0,4.3,1.8,4.3,4.2c0,2.3-1.9,4.3-4.2,4.3c0,0-0.1,0-0.1,0H171c-2.4,0.9-5-0.3-5.9-2.7S165.4,629.1,167.7,628.2z
	 M167.7,645.3c0.1,0,0.2,0,0.3,0c0.1,0,0.2,0,0.3,0c0.1,0,0.2,0,0.3,0c0.1,0,0.2,0,0.3,0c0.1,0,0.2,0,0.3,0c0.2,0,0.4,0,0.5,0
	c0.2,0,0.4,0,0.5,0c0.3,0,0.5,0,0.8,0h170.5c2.4,0,4.3,1.8,4.3,4.2s-1.9,4.3-4.2,4.3c0,0-0.1,0-0.1,0H171c-2.4,0.9-5-0.3-5.9-2.7
	S165.4,646.2,167.7,645.3z M167.7,662.3c0.1,0,0.2,0,0.3,0c0.1,0,0.2,0,0.3,0c0.1,0,0.2,0,0.3,0c0.1,0,0.2,0,0.3,0
	c0.1,0,0.2,0,0.3,0c0.2,0,0.4,0,0.5,0c0.2,0,0.4,0,0.5,0c0.3,0,0.5,0,0.8,0h170.5c2.4,0,4.3,1.8,4.3,4.2c0,2.3-1.9,4.3-4.2,4.3
	c0,0-0.1,0-0.1,0H171c-2.4,0.9-5-0.3-5.9-2.7C164.2,665.8,165.4,663.2,167.7,662.3L167.7,662.3z M167.7,679.4c0.1,0,0.2,0,0.3,0
	c0.1,0,0.2,0,0.3,0c0.1,0,0.2,0,0.3,0c0.1,0,0.2,0,0.3,0c0.1,0,0.2,0,0.3,0c0.2,0,0.4,0,0.5,0c0.2,0,0.4,0,0.5,0c0.3,0,0.5,0,0.8,0
	h170.5c2.4,0,4.3,1.8,4.3,4.2c0,2.3-1.9,4.3-4.2,4.3c0,0-0.1,0-0.1,0H171c-2.4,0.9-5-0.3-5.9-2.7
	C164.2,682.9,165.4,680.3,167.7,679.4z M167.7,696.4c0.1,0,0.2,0,0.3,0c0.1,0,0.2,0,0.3,0c0.1,0,0.2,0,0.3,0c0.1,0,0.2,0,0.3,0
	c0.1,0,0.2,0,0.3,0c0.2,0,0.4,0,0.5,0c0.2,0,0.4,0,0.5,0c0.3,0,0.5,0,0.8,0h170.5c0.5,0,1.1,0.1,1.6,0.3c0.1,0.1,0.2,0.2,0.3,0.3
	c0.2,0,0.4,0,0.5,0c0.4,0.4,0.8,0.8,1.1,1.3c0.1,0.1,0.2,0.2,0.3,0.3c0.1,0.2,0.2,0.3,0.3,0.5c0,0.1,0,0.2,0,0.3
	c0.1,0.2,0.2,0.3,0.3,0.5c0,0.1,0,0.2,0,0.3c0,0.2,0,0.4,0,0.5c0,0.3,0,0.5,0,0.8c0,0.1,0,0.2,0,0.3c-0.1,0.2-0.2,0.4-0.3,0.5
	c-0.1,0.3-0.1,0.5-0.3,0.8c-0.1,0.1-0.2,0.2-0.3,0.3c-0.5,0.6-1.1,1.1-1.9,1.3c-0.5,0.2-1,0.3-1.6,0.3H171c-2.4,0.9-5-0.3-5.9-2.7
	S165.4,697.3,167.7,696.4z"/>
</svg>
