<?xml version="1.0" encoding="utf-8"?>
<!-- Generator: Adobe Illustrator 23.0.3, SVG Export Plug-In . SVG Version: 6.00 Build 0)  -->
<svg version="1.1" id="Layer_1" xmlns="http://www.w3.org/2000/svg" xmlns:xlink="http://www.w3.org/1999/xlink" x="0px" y="0px"
	 viewBox="0 0 800 800" style="enable-background:new 0 0 800 800;" xml:space="preserve">
<style type="text/css">
	.st0{fill:#F9F7ED;}
</style>
<g>
	<path d="M-146,263"/>
	<path d="M-200,50"/>
	<rect class="st0" width="800" height="800"/>
</g>
<path d="M409.64,44.27L160.28,210.51h205.4L598.52,44.27H409.64z M612.9,44.27L371.27,216.9v505.91l251.49-209.66V44.27H612.9z
	 M591.86,105.54c1,0.26,1.6,1.14,1.6,2.66c0,3.05-2.54,7.33-5.59,9.59c-3.05,2.26-5.59,1.72-5.59-1.33s2.54-7.33,5.59-9.59
	C589.39,105.74,590.86,105.28,591.86,105.54z M575.34,117.8c1,0.26,1.6,1.14,1.6,2.66c0,3.05-2.54,7.33-5.59,9.59
	c-3.05,2.26-5.59,1.72-5.59-1.33c0-3.05,2.54-7.33,5.59-9.59C572.87,118,574.34,117.54,575.34,117.8z M591.86,122.06
	c1,0.26,1.6,1.14,1.6,2.66c0,3.05-2.54,7.6-5.59,9.86c-3.05,2.26-5.59,1.45-5.59-1.6s2.54-7.33,5.59-9.59
	C589.39,122.26,590.86,121.8,591.86,122.06z M558.56,130.05c1,0.26,1.6,1.14,1.6,2.66c0,3.05-2.28,7.6-5.33,9.86
	s-5.59,1.45-5.59-1.6s2.54-7.33,5.59-9.59C556.35,130.25,557.56,129.79,558.56,130.05z M575.34,134.31c1,0.26,1.6,1.4,1.6,2.93
	c0,3.05-2.54,7.33-5.59,9.59c-3.05,2.26-5.59,1.45-5.59-1.6s2.54-7.33,5.59-9.59C572.87,134.52,574.34,134.05,575.34,134.31z
	 M591.33,138.58c1.25,0.12,2.13,1.21,2.13,2.93c0,3.05-2.54,7.33-5.59,9.59c-3.05,2.26-5.59,1.45-5.59-1.6s2.54-7.33,5.59-9.59
	c0.76-0.56,1.47-0.86,2.13-1.07C590.49,138.69,590.91,138.53,591.33,138.58z M542.04,142.31c1,0.26,1.6,1.14,1.6,2.66
	c0,3.05-2.54,7.6-5.59,9.86c-3.05,2.26-5.33,1.45-5.33-1.6s2.28-7.33,5.33-9.59C539.57,142.51,541.04,142.05,542.04,142.31z
	 M558.56,146.57c1,0.26,1.6,1.4,1.6,2.93c0,3.05-2.28,7.33-5.33,9.59c-3.05,2.26-5.59,1.45-5.59-1.6s2.54-7.33,5.59-9.59
	C556.35,146.77,557.56,146.31,558.56,146.57z M574.81,150.83c1.25,0.12,2.13,1.21,2.13,2.93c0,3.05-2.54,7.33-5.59,9.59
	c-3.05,2.26-5.59,1.72-5.59-1.33c0-3.05,2.54-7.6,5.59-9.86c0.76-0.56,1.47-0.86,2.13-1.07
	C573.97,150.94,574.39,150.79,574.81,150.83z M525.52,154.56c1,0.26,1.6,1.4,1.6,2.93c0,3.05-2.54,7.33-5.59,9.59
	c-3.05,2.26-5.59,1.45-5.59-1.6s2.54-7.33,5.59-9.59C523.05,154.76,524.52,154.3,525.52,154.56z M591.33,155.09
	c1.25,0.12,2.13,1.21,2.13,2.93c0,3.05-2.54,7.33-5.59,9.59c-3.05,2.26-5.59,1.72-5.59-1.33s2.54-7.33,5.59-9.59
	c0.76-0.56,1.47-1.12,2.13-1.33C590.49,155.2,590.91,155.05,591.33,155.09z M541.77,158.82c1.18,0.12,1.86,1.21,1.86,2.93
	c0,3.05-2.54,7.33-5.59,9.59c-3.05,2.26-5.33,1.45-5.33-1.6c0-3.05,2.28-7.33,5.33-9.59c0.76-0.56,1.74-0.86,2.4-1.07
	C540.94,158.93,541.38,158.78,541.77,158.82z M558.29,163.09c1.18,0.12,1.86,1.21,1.86,2.93c0,3.05-2.28,7.33-5.33,9.59
	s-5.59,1.72-5.59-1.33s2.54-7.6,5.59-9.86c0.76-0.56,1.47-0.86,2.13-1.07C557.45,163.19,557.9,163.04,558.29,163.09z M509.01,166.82
	c1,0.26,1.6,1.4,1.6,2.93c0,3.05-2.54,7.33-5.59,9.59c-3.05,2.26-5.59,1.45-5.59-1.6c0-3.05,2.54-7.33,5.59-9.59
	C506.54,167.02,508.01,166.56,509.01,166.82z M574.81,167.35c1.25,0.12,2.13,1.21,2.13,2.93c0,3.05-2.54,7.33-5.59,9.59
	s-5.59,1.72-5.59-1.33s2.54-7.33,5.59-9.59c0.76-0.56,1.47-1.12,2.13-1.33C573.97,167.46,574.39,167.31,574.81,167.35z
	 M524.99,171.08c1.25,0.12,2.13,1.21,2.13,2.93c0,3.05-2.54,7.33-5.59,9.59s-5.59,1.72-5.59-1.33s2.54-7.6,5.59-9.86
	c0.76-0.56,1.47-0.86,2.13-1.07C524.15,171.19,524.57,171.04,524.99,171.08z M591.33,171.61c1.25,0.12,2.13,1.21,2.13,2.93
	c0,3.05-2.54,7.33-5.59,9.59c-3.05,2.26-5.59,1.72-5.59-1.33s2.54-7.33,5.59-9.59c0.76-0.56,1.47-1.12,2.13-1.33
	C590.49,171.72,590.91,171.57,591.33,171.61z M541.77,175.34c1.18,0.12,1.86,1.21,1.86,2.93c0,3.05-2.54,7.33-5.59,9.59
	s-5.33,1.72-5.33-1.33s2.28-7.33,5.33-9.59c0.76-0.56,1.74-1.12,2.4-1.33C540.94,175.45,541.38,175.3,541.77,175.34z M558.29,179.6
	c1.18,0.12,1.86,1.21,1.86,2.93c0,3.05-2.28,7.33-5.33,9.59c-3.05,2.26-5.59,1.72-5.59-1.33s2.54-7.33,5.59-9.59
	c0.76-0.56,1.47-1.12,2.13-1.33C557.45,179.71,557.9,179.56,558.29,179.6z M508.47,183.33c1.25,0.12,2.13,1.21,2.13,2.93
	c0,3.05-2.54,7.33-5.59,9.59c-3.05,2.26-5.59,1.72-5.59-1.33s2.54-7.6,5.59-9.86c0.76-0.56,1.47-0.86,2.13-1.07
	C507.64,183.44,508.05,183.29,508.47,183.33z M575.34,184.13c1,0.26,1.6,1.14,1.6,2.66c0,3.05-2.54,7.33-5.59,9.59
	c-3.05,2.26-5.59,1.72-5.59-1.33c0-3.05,2.54-7.33,5.59-9.59C572.87,184.33,574.34,183.87,575.34,184.13z M524.99,187.59
	c1.25,0.12,2.13,1.21,2.13,2.93c0,3.05-2.54,7.33-5.59,9.59c-3.05,2.26-5.59,1.72-5.59-1.33s2.54-7.33,5.59-9.59
	c0.76-0.56,1.47-1.12,2.13-1.33C524.15,187.7,524.57,187.55,524.99,187.59z M541.77,191.86c1.18,0.12,1.86,1.21,1.86,2.93
	c0,3.05-2.54,7.33-5.59,9.59c-3.05,2.26-5.33,1.72-5.33-1.33c0-3.05,2.28-7.33,5.33-9.59c0.76-0.56,1.74-1.12,2.4-1.33
	C540.94,191.97,541.38,191.82,541.77,191.86z M558.56,196.39c1,0.26,1.6,1.14,1.6,2.66c0,3.05-2.28,7.33-5.33,9.59
	c-3.05,2.26-5.59,1.72-5.59-1.33c0-3.05,2.54-7.33,5.59-9.59C556.35,196.59,557.56,196.13,558.56,196.39z M508.47,199.85
	c1.25,0.12,2.13,1.21,2.13,2.93c0,3.05-2.54,7.33-5.59,9.59c-3.05,2.26-5.59,1.72-5.59-1.33c0-3.05,2.54-7.33,5.59-9.59
	c0.76-0.56,1.47-1.12,2.13-1.33C507.64,199.96,508.05,199.81,508.47,199.85z M525.52,204.38c1,0.26,1.6,1.14,1.6,2.66
	c0,3.05-2.54,7.33-5.59,9.59c-3.05,2.26-5.59,1.72-5.59-1.33c0-3.05,2.54-7.33,5.59-9.59C523.05,204.58,524.52,204.12,525.52,204.38
	z M542.04,208.64c1,0.26,1.6,1.14,1.6,2.66c0,3.05-2.54,7.6-5.59,9.86s-5.33,1.45-5.33-1.6s2.28-7.33,5.33-9.59
	C539.57,208.84,541.04,208.38,542.04,208.64z M509.01,216.63c1,0.26,1.6,1.14,1.6,2.66c0,3.05-2.54,7.33-5.59,9.59
	c-3.05,2.26-5.59,1.72-5.59-1.33s2.54-7.33,5.59-9.59C506.54,216.84,508.01,216.37,509.01,216.63z M153.89,219.03v507.24h208.86
	V219.03H153.89z M525.52,220.9c1,0.26,1.6,1.4,1.6,2.93c0,3.05-2.54,7.33-5.59,9.59c-3.05,2.26-5.59,1.45-5.59-1.6
	s2.54-7.33,5.59-9.59C523.05,221.1,524.52,220.64,525.52,220.9z M509.01,233.15c1,0.26,1.6,1.4,1.6,2.93c0,3.05-2.54,7.33-5.59,9.59
	c-3.05,2.26-5.59,1.45-5.59-1.6s2.54-7.33,5.59-9.59C506.54,233.35,508.01,232.89,509.01,233.15z M179.46,257.39h153.45v25.57
	H179.46V257.39z M179.46,291.49h153.45v25.58H179.46V291.49z M179.46,325.59h153.45v25.58H179.46V325.59z M179.46,359.69h153.45
	v25.58H179.46V359.69z M311.6,393.79c0.67-0.06,1.33,0.13,1.86,0.53c0.09,0.08,0.18,0.17,0.27,0.27c0.09,0.08,0.18,0.17,0.27,0.27
	c0.41,0.53,0.6,1.2,0.53,1.86v15.98c0,0.58-0.19,1.14-0.53,1.6c-0.08,0.09-0.17,0.18-0.27,0.27c-0.23,0.22-0.5,0.4-0.8,0.53
	c-0.87,0.39-1.89,0.29-2.66-0.27c-0.09-0.08-0.18-0.17-0.27-0.27c-0.09-0.08-0.18-0.17-0.27-0.27c-0.35-0.46-0.53-1.02-0.53-1.6
	v-15.98c0-0.58,0.19-1.14,0.53-1.6c0.08-0.09,0.17-0.18,0.27-0.27c0.08-0.09,0.17-0.18,0.27-0.27c0.31-0.26,0.67-0.44,1.07-0.53
	C311.41,393.96,311.5,393.88,311.6,393.79z M304.67,401.25c1.54-0.29,3.04,0.72,3.33,2.26c0.29,1.54-0.72,3.04-2.26,3.33l0,0
	c-0.85,0.63-1.77,1.54-2.4,2.4c-3.51,4.78-2.38,11.41,2.4,14.92c4.78,3.51,11.41,2.38,14.92-2.4c3.51-4.78,2.38-11.41-2.4-14.92
	c-0.09-0.08-0.18-0.17-0.27-0.27c-0.22-0.23-0.4-0.5-0.53-0.8c-0.3-0.68-0.3-1.45,0-2.13c0.13-0.3,0.31-0.57,0.53-0.8
	c0.08-0.09,0.17-0.18,0.27-0.27c0.39-0.3,0.85-0.48,1.33-0.53c0.67-0.06,1.33,0.13,1.86,0.53c7.1,5.22,8.69,15.28,3.46,22.38
	c-5.22,7.1-15.28,8.69-22.38,3.46c-7.1-5.22-8.69-15.28-3.46-22.38c0.94-1.28,1.92-2.51,3.2-3.46c0.17-0.11,0.35-0.2,0.53-0.27
	c0.08-0.09,0.17-0.18,0.27-0.27c0.08-0.09,0.17-0.18,0.27-0.27c0.17-0.11,0.35-0.2,0.53-0.27
	C304.12,401.39,304.39,401.3,304.67,401.25z M196.51,402.32c4.71,0,8.52,3.82,8.52,8.52s-3.82,8.52-8.52,8.52s-8.53-3.82-8.53-8.52
	S191.8,402.32,196.51,402.32z M221.55,402.32c4.71,0,8.52,3.82,8.52,8.52s-3.82,8.52-8.52,8.52c-4.71,0-8.53-3.82-8.53-8.52
	S216.84,402.32,221.55,402.32z M167.74,594.13c0.09,0,0.18,0,0.27,0c0.09,0,0.18,0,0.27,0c0.09,0,0.18,0,0.27,0
	c0.09,0,0.18,0,0.27,0c0.09,0,0.18,0,0.27,0c0.18-0.01,0.36-0.01,0.53,0c0.18-0.01,0.36-0.01,0.53,0c0.27-0.03,0.53-0.03,0.8,0
	h170.5c2.35-0.03,4.29,1.85,4.32,4.2c0.03,2.35-1.85,4.29-4.2,4.32c-0.04,0-0.08,0-0.12,0h-170.5c-2.35,0.88-4.98-0.31-5.86-2.66
	C164.19,597.64,165.38,595.01,167.74,594.13z M167.74,611.18c0.09,0,0.18,0,0.27,0c0.09,0,0.18,0,0.27,0c0.09,0,0.18,0,0.27,0
	c0.09,0,0.18,0,0.27,0c0.09,0,0.18,0,0.27,0c0.18-0.01,0.36-0.01,0.53,0c0.18-0.01,0.36-0.01,0.53,0c0.27-0.03,0.53-0.03,0.8,0
	h170.5c2.35-0.03,4.29,1.85,4.32,4.2c0.03,2.35-1.85,4.29-4.2,4.32c-0.04,0-0.08,0-0.12,0h-170.5c-2.35,0.88-4.98-0.31-5.86-2.66
	S165.38,612.06,167.74,611.18z M167.74,628.23c0.09,0,0.18,0,0.27,0c0.09,0,0.18,0,0.27,0c0.09,0,0.18,0,0.27,0
	c0.09,0,0.18,0,0.27,0c0.09,0,0.18,0,0.27,0c0.18-0.01,0.36-0.01,0.53,0c0.18-0.01,0.36-0.01,0.53,0c0.27-0.03,0.53-0.03,0.8,0
	h170.5c2.35-0.03,4.29,1.85,4.32,4.2c0.03,2.35-1.85,4.29-4.2,4.32c-0.04,0-0.08,0-0.12,0h-170.5c-2.35,0.88-4.98-0.31-5.86-2.66
	S165.38,629.11,167.74,628.23z M167.74,645.28c0.09,0,0.18,0,0.27,0c0.09,0,0.18,0,0.27,0c0.09,0,0.18,0,0.27,0
	c0.09,0,0.18,0,0.27,0c0.09,0,0.18,0,0.27,0c0.18-0.01,0.36-0.01,0.53,0c0.18-0.01,0.36-0.01,0.53,0c0.27-0.03,0.53-0.03,0.8,0
	h170.5c2.35-0.03,4.29,1.85,4.32,4.2s-1.85,4.29-4.2,4.32c-0.04,0-0.08,0-0.12,0h-170.5c-2.35,0.88-4.98-0.31-5.86-2.66
	S165.38,646.16,167.74,645.28z M167.74,662.33c0.09,0,0.18,0,0.27,0c0.09,0,0.18,0,0.27,0c0.09,0,0.18,0,0.27,0
	c0.09,0,0.18,0,0.27,0c0.09,0,0.18,0,0.27,0c0.18-0.01,0.36-0.01,0.53,0c0.18-0.01,0.36-0.01,0.53,0c0.27-0.03,0.53-0.03,0.8,0
	h170.5c2.35-0.03,4.29,1.85,4.32,4.2c0.03,2.35-1.85,4.29-4.2,4.32c-0.04,0-0.08,0-0.12,0h-170.5c-2.35,0.88-4.98-0.31-5.86-2.66
	C164.19,665.84,165.38,663.21,167.74,662.33L167.74,662.33z M167.74,679.38c0.09,0,0.18,0,0.27,0c0.09,0,0.18,0,0.27,0
	c0.09,0,0.18,0,0.27,0c0.09,0,0.18,0,0.27,0c0.09,0,0.18,0,0.27,0c0.18-0.01,0.36-0.01,0.53,0c0.18-0.01,0.36-0.01,0.53,0
	c0.27-0.03,0.53-0.03,0.8,0h170.5c2.35-0.03,4.29,1.85,4.32,4.2c0.03,2.35-1.85,4.29-4.2,4.32c-0.04,0-0.08,0-0.12,0h-170.5
	c-2.35,0.88-4.98-0.31-5.86-2.66C164.19,682.89,165.38,680.26,167.74,679.38z M167.74,696.43c0.09,0,0.18,0,0.27,0
	c0.09,0,0.18,0,0.27,0c0.09,0,0.18,0,0.27,0c0.09,0,0.18,0,0.27,0c0.09,0,0.18,0,0.27,0c0.18-0.01,0.36-0.01,0.53,0
	c0.18-0.01,0.36-0.01,0.53,0c0.27-0.03,0.53-0.03,0.8,0h170.5c0.54-0.01,1.09,0.08,1.6,0.27c0.09,0.08,0.18,0.17,0.27,0.27
	c0.18-0.01,0.36-0.01,0.53,0c0.44,0.37,0.8,0.82,1.07,1.33c0.09,0.08,0.18,0.17,0.27,0.27c0.1,0.17,0.19,0.35,0.27,0.53
	c0,0.09,0,0.18,0,0.27c0.1,0.17,0.19,0.35,0.27,0.53c0,0.09,0,0.18,0,0.27c0.01,0.18,0.01,0.36,0,0.53c0.03,0.27,0.03,0.53,0,0.8
	c0,0.09,0,0.18,0,0.27c-0.08,0.18-0.17,0.36-0.27,0.53c-0.06,0.27-0.15,0.54-0.27,0.8c-0.08,0.09-0.17,0.18-0.27,0.27
	c-0.49,0.61-1.13,1.07-1.86,1.33c-0.51,0.19-1.05,0.28-1.6,0.27h-170.5c-2.35,0.88-4.98-0.31-5.86-2.66S165.38,697.31,167.74,696.43
	z"/>
</svg>
