<?xml version="1.0" encoding="utf-8"?>
<!-- Generator: Adobe Illustrator 23.0.3, SVG Export Plug-In . SVG Version: 6.00 Build 0)  -->
<svg version="1.1" xmlns="http://www.w3.org/2000/svg" xmlns:xlink="http://www.w3.org/1999/xlink" x="0px" y="0px"
	 viewBox="0 0 800 800" style="enable-background:new 0 0 800 800;" xml:space="preserve">
<style type="text/css">
	.st0{fill:#F9F7ED;}
</style>
<g id="Layer_2">
	<path d="M-146,263"/>
	<path d="M-200,50"/>
	<rect class="st0" width="800" height="800"/>
</g>
<g id="Layer_1">
	<g>
		<rect x="640.04" y="647.38" width="21.32" height="21.32"/>
		<circle cx="373.52" cy="562.09" r="10.66"/>
		<rect x="149.64" y="647.38" width="21.32" height="21.32"/>
		<rect x="149.64" y="540.77" width="127.93" height="42.64"/>
		<rect x="384.18" y="455.48" width="42.64" height="21.32"/>
		<path d="M426.82,220.95c0-11.78-9.55-21.32-21.32-21.32c-11.78,0-21.32,9.55-21.32,21.32v213.21h42.64V220.95z"/>
		<circle cx="629.38" cy="562.09" r="10.66"/>
		<path d="M672.02,498.13H138.98c-17.66,0-31.98,14.32-31.98,31.98v63.96c0,17.66,14.32,31.98,31.98,31.98h533.04
			c17.66,0,31.98-14.32,31.98-31.98v-63.96C704,512.44,689.68,498.13,672.02,498.13z M298.89,604.73H128.32v-85.29h170.57V604.73z
			 M373.52,594.07c-17.66,0-31.98-14.32-31.98-31.98c0-17.66,14.32-31.98,31.98-31.98c17.66,0,31.98,14.32,31.98,31.98
			C405.5,579.75,391.18,594.07,373.52,594.07z M458.8,594.07c-17.66,0-31.98-14.32-31.98-31.98c0-17.66,14.32-31.98,31.98-31.98
			c17.66,0,31.98,14.32,31.98,31.98C490.79,579.75,476.47,594.07,458.8,594.07z M544.09,594.07c-17.66,0-31.98-14.32-31.98-31.98
			c0-17.66,14.32-31.98,31.98-31.98c17.66,0,31.98,14.32,31.98,31.98C576.07,579.75,561.75,594.07,544.09,594.07z M629.38,594.07
			c-17.66,0-31.98-14.32-31.98-31.98c0-17.66,14.32-31.98,31.98-31.98s31.98,14.32,31.98,31.98
			C661.36,579.75,647.04,594.07,629.38,594.07z"/>
		<circle cx="544.09" cy="562.09" r="10.66"/>
		<circle cx="458.8" cy="562.09" r="10.66"/>
		<path d="M249.65,141.04c-33.49,33.01-33.88,86.92-0.87,120.41c0.02,0.02,0.03,0.04,0.05,0.05c4.14,4.19,10.89,4.24,15.08,0.1
			c4.19-4.14,4.24-10.89,0.1-15.08l0,0c-24.77-25.07-24.53-65.47,0.54-90.25c0.02-0.02,0.05-0.05,0.07-0.07
			c3.96-4.35,3.65-11.1-0.71-15.06c-4.02-3.66-10.14-3.71-14.22-0.12L249.65,141.04z"/>
		<path d="M186.75,111.6c-49.74,50.15-49.43,131.12,0.7,180.88c4.11,4.22,10.86,4.3,15.08,0.19s4.3-10.86,0.19-15.08
			c-0.08-0.09-0.17-0.17-0.26-0.25c-41.77-41.47-42.03-108.93-0.59-150.72c4.15-4.18,4.12-10.93-0.06-15.08
			c-4.18-4.15-10.93-4.12-15.08,0.06H186.75z"/>
		<path d="M326.34,171.6c-4.16-4.16-10.91-4.16-15.07,0c-16.59,16.72-16.48,43.72,0.23,60.31c0,0,0,0,0,0
			c4.05,4.28,10.79,4.46,15.07,0.42s4.46-10.79,0.42-15.07c-0.15-0.16-0.31-0.32-0.48-0.47c-8.36-8.3-8.41-21.8-0.11-30.15
			c0,0,0,0,0.01-0.01C330.52,182.44,330.49,175.74,326.34,171.6z"/>
		<path d="M546.38,156.23c25.11,24.73,25.41,65.14,0.68,90.25c-0.02,0.02-0.05,0.05-0.07,0.07c-4.14,4.2-4.08,10.96,0.12,15.1
			c4.2,4.14,10.96,4.08,15.1-0.12c33.04-33.46,32.7-87.37-0.77-120.41c-0.02-0.02-0.04-0.03-0.05-0.05
			c-3.96-4.35-10.71-4.67-15.06-0.71c-4.35,3.96-4.67,10.71-0.71,15.06c0.26,0.29,0.55,0.57,0.84,0.83L546.38,156.23z"/>
		<path d="M609.12,126.62c41.44,41.79,41.19,109.25-0.58,150.72c-4.25,4.07-4.39,10.82-0.32,15.07c4.07,4.25,10.82,4.39,15.07,0.32
			c0.09-0.08,0.17-0.17,0.25-0.25c50.13-49.76,50.44-130.73,0.7-180.88c-4.15-4.18-10.9-4.21-15.08-0.06
			C605,115.69,604.97,122.44,609.12,126.62L609.12,126.62z"/>
		<path d="M484.39,231.91c4.15,4.18,10.9,4.2,15.07,0.05c16.72-16.59,16.82-43.59,0.24-60.31c0,0,0,0,0,0
			c-4.15-4.18-10.9-4.21-15.08-0.06s-4.21,10.9-0.06,15.08c8.3,8.35,8.25,21.85-0.1,30.15c0,0,0,0-0.01,0.01
			C480.27,220.98,480.25,227.73,484.39,231.91z"/>
	</g>
</g>
</svg>
