<?xml version="1.0" encoding="utf-8"?>
<!-- Generator: Adobe Illustrator 23.0.3, SVG Export Plug-In . SVG Version: 6.00 Build 0)  -->
<svg version="1.1" id="Layer_1" xmlns="http://www.w3.org/2000/svg" xmlns:xlink="http://www.w3.org/1999/xlink" x="0px" y="0px"
	 viewBox="0 0 800 800" style="enable-background:new 0 0 800 800;" xml:space="preserve">
<style type="text/css">
	.st0{fill:#F9F7ED;}
</style>
<g>
	<path d="M-146,263"/>
	<path d="M-200,50"/>
	<rect class="st0" width="800" height="800"/>
</g>
<g>
	<g>
		<path d="M565.97,567.47h-334.8c-6.46,0-11.69-5.23-11.69-11.69v-334.8c0-6.46,5.23-11.69,11.69-11.69h334.8
			c6.46,0,11.69,5.23,11.69,11.69v334.8C577.65,562.23,572.42,567.47,565.97,567.47z M242.73,544.09h311.54V232.55H242.73V544.09z"
			/>
		<path d="M305.77,227.5c-6.46,0-11.69-5.23-11.69-11.69V107.17c0-3.45-5.3-7.32-12.49-7.32c-6.46,0-11.69-5.23-11.69-11.69
			s5.23-11.69,11.69-11.69c19.71,0,35.76,13.77,35.76,30.7v108.63C317.34,222.21,312.18,227.43,305.77,227.5z"/>
		<path d="M435.44,227.5c-6.46,0-11.69-5.23-11.69-11.69V107.17c0-16.94,16.04-30.7,35.78-30.7c6.46,0,11.69,5.23,11.69,11.69
			c0,6.46-5.23,11.69-11.69,11.69c-7.09,0-12.49,3.85-12.49,7.32v108.63C447.03,222.23,441.86,227.45,435.44,227.5z"/>
		<path d="M370.61,232.55c-6.46,0-11.69-5.23-11.69-11.69v-83c0-6.46,5.23-11.69,11.69-11.69s11.69,5.23,11.69,11.69v83
			c0,3.1-1.23,6.08-3.43,8.27C376.68,231.31,373.7,232.55,370.61,232.55z"/>
		<path d="M500.28,232.55c-6.46,0-11.69-5.23-11.69-11.69v-83c0-6.46,5.23-11.69,11.69-11.69s11.69,5.23,11.69,11.69v83
			C511.97,227.31,506.73,232.55,500.28,232.55z"/>
		<path d="M679.66,307.21H571.01c-6.46,0-11.69-5.23-11.69-11.69s5.23-11.69,11.69-11.69h108.66c3.45,0,7.32-5.3,7.32-12.49
			c0-6.46,5.23-11.69,11.69-11.69s11.69,5.23,11.69,11.69C710.33,291.21,696.56,307.21,679.66,307.21z"/>
		<path d="M698.63,461.01c-6.46,0-11.69-5.23-11.69-11.69c0-7.09-3.87-12.49-7.32-12.49H571.01c-4.18,0-8.04-2.23-10.13-5.84
			c-2.09-3.61-2.09-8.07,0-11.69c2.09-3.62,5.95-5.84,10.13-5.84h108.66c16.94,0,30.7,16.04,30.7,35.76
			c0.03,3.13-1.19,6.15-3.39,8.37C704.78,459.79,701.76,461.03,698.63,461.01z"/>
		<path d="M648.96,372.16h-83c-6.46,0-11.69-5.23-11.69-11.69s5.23-11.69,11.69-11.69h83c6.46,0,11.69,5.23,11.69,11.69
			S655.42,372.16,648.96,372.16z"/>
		<path d="M648.96,501.78h-83c-6.46,0-11.69-5.23-11.69-11.69s5.23-11.69,11.69-11.69h83c6.46,0,11.69,5.23,11.69,11.69
			S655.42,501.78,648.96,501.78z"/>
		<path d="M515.31,700.14c-19.71,0-35.76-13.77-35.76-30.7V560.83c0-6.46,5.23-11.69,11.69-11.69c6.46,0,11.69,5.23,11.69,11.69
			v108.66c0,3.39,5.42,7.32,12.49,7.32c6.46,0,11.69,5.23,11.69,11.69s-5.23,11.69-11.69,11.69L515.31,700.14z"/>
		<path d="M337.38,700.14c-6.46,0-11.69-5.23-11.69-11.69s5.23-11.69,11.69-11.69c7.09,0,12.49-3.87,12.49-7.32V560.83
			c0-6.46,5.23-11.69,11.69-11.69s11.69,5.23,11.69,11.69v108.66C373.25,686.38,357.21,700.14,337.38,700.14z"/>
		<path d="M426.4,650.45c-3.1,0-6.08-1.23-8.27-3.43c-2.19-2.2-3.43-5.17-3.43-8.27v-82.97c0-6.46,5.23-11.69,11.69-11.69
			s11.69,5.23,11.69,11.69v83C438.08,645.22,432.84,650.45,426.4,650.45z"/>
		<path d="M296.72,650.45c-3.1,0-6.08-1.23-8.27-3.43c-2.19-2.19-3.43-5.17-3.43-8.27v-82.97c0-6.46,5.23-11.69,11.69-11.69
			s11.69,5.23,11.69,11.69v83C308.4,645.22,303.17,650.45,296.72,650.45z"/>
		<path d="M98.37,516.8c-6.46,0-11.69-5.23-11.69-11.69c0-19.71,13.77-35.76,30.7-35.76h108.63c6.46,0,11.69,5.23,11.69,11.69
			c0,6.46-5.23,11.69-11.69,11.69H117.35c-3.45,0-7.32,5.3-7.32,12.49C109.97,511.63,104.77,516.78,98.37,516.8z"/>
		<path d="M225.99,363.04H117.35c-16.94,0-30.7-16.04-30.7-35.75c0-4.18,2.23-8.04,5.84-10.13c3.61-2.09,8.07-2.09,11.69,0
			c3.62,2.09,5.84,5.95,5.84,10.13c0,7.09,3.87,12.49,7.32,12.49h108.63c6.46,0,11.69,5.23,11.69,11.69s-5.23,11.69-11.69,11.69
			L225.99,363.04L225.99,363.04z"/>
		<path d="M231.04,427.91h-83c-6.46,0-11.69-5.23-11.69-11.69s5.23-11.69,11.69-11.69h83c6.46,0,11.69,5.23,11.69,11.69
			S237.5,427.91,231.04,427.91z"/>
		<path d="M231.04,298.21h-83c-6.46,0-11.69-5.23-11.69-11.69s5.23-11.69,11.69-11.69h83c6.46,0,11.69,5.23,11.69,11.69
			S237.5,298.21,231.04,298.21z"/>
		<path d="M491.23,371.16c-3.29-0.13-6.4-1.53-8.67-3.92c-13.62-13.61-30.37-23.67-48.8-29.28c-42.18-13.09-88.14-1.8-119.45,29.33
			c-2.21,2.33-5.25,3.68-8.46,3.75c-3.21,0.07-6.31-1.16-8.6-3.4c-2.31-2.27-3.59-5.38-3.54-8.62c0.05-3.24,1.42-6.31,3.79-8.52
			c20.96-21.36,48.31-35.3,77.9-39.75c47.67-7.09,89.1,6.2,123.95,39.63c3.25,2.98,4.6,7.51,3.5,11.78c-1.1,4.27-4.47,7.58-8.77,8.6
			C493.14,370.95,492.19,371.09,491.23,371.16z"/>
		<path d="M400.89,352.18c25.52,0.45,49.85,10.82,67.86,28.9c3.13,2.96,4.42,7.38,3.36,11.55s-4.29,7.45-8.45,8.57
			c-4.16,1.12-8.6-0.1-11.61-3.19c-15.75-15.82-37.74-23.78-59.97-21.72c-17.83,1.26-34.6,8.93-47.22,21.59
			c-2.96,3.13-7.37,4.42-11.55,3.37c-4.18-1.05-7.46-4.27-8.58-8.43c-1.13-4.15,0.09-8.6,3.17-11.61
			c12.43-12.45,27.95-21.35,44.97-25.78C382.03,353.13,391.45,352.03,400.89,352.18z"/>
		<path d="M398.36,394.65c15.23-0.08,29.86,5.97,40.58,16.79c3,2.99,4.19,7.35,3.11,11.44c-1.09,4.09-4.27,7.3-8.35,8.41
			c-4.08,1.11-8.46-0.05-11.46-3.04c-13.07-12.95-34.11-13.01-47.27-0.15c-2.15,2.2-5.05,3.51-8.12,3.68
			c-4.91,0.23-9.47-2.59-11.44-7.09c-1.97-4.51-0.96-9.77,2.55-13.22C368.63,400.69,383.19,394.64,398.36,394.65z"/>
		<path d="M398.42,436.55c8.59-0.02,15.57,6.92,15.61,15.52c0.04,8.6-6.88,15.6-15.47,15.66s-15.62-6.82-15.72-15.42
			c-0.03-4.15,1.59-8.16,4.51-11.12C390.28,438.24,394.25,436.57,398.42,436.55z"/>
	</g>
</g>
</svg>
