<?xml version="1.0" encoding="utf-8"?>
<!-- Generator: Adobe Illustrator 23.0.3, SVG Export Plug-In . SVG Version: 6.00 Build 0)  -->
<svg version="1.1" id="Layer_1" xmlns="http://www.w3.org/2000/svg" xmlns:xlink="http://www.w3.org/1999/xlink" x="0px" y="0px"
	 viewBox="0 0 800 800" style="enable-background:new 0 0 800 800;" xml:space="preserve">
<style type="text/css">
	.st0{fill:#F9F7ED;}
</style>
<g>
	<path d="M-146,263"/>
	<path d="M-200,50"/>
	<rect class="st0" width="800" height="800"/>
</g>
<path d="M576.24,300.09h5.82c8.31-1.25,18.49-1.25,27.62,0l0,0l0,0c0.42,0,1.04,0,1.45,0c15.99,1.87,31.15,6.44,45.28,13.71
	c1.87-2.91,3.95-5.61,5.61-8.72c15.99-27.42,25.13-57.95,26.79-89.1H584.97C584.55,245.47,581.43,273.92,576.24,300.09z"/>
<path d="M446.64,13.88c-45.9,11.01-86.82,38.01-114.86,76.85h80.38C420.88,57.5,432.51,31.54,446.64,13.88z"/>
<path d="M407.59,111.5H318.9c-14.12,25.96-22.43,54.62-23.89,83.91h103.85C399.28,166.13,402.4,137.67,407.59,111.5z"/>
<path d="M550.07,90.73c-13.09-47.36-34.06-79.13-54.83-82.04c-1.04,0-2.28-0.21-3.32-0.21s-2.08,0.21-3.32,0.21
	c-20.98,3.12-41.75,34.69-54.83,82.04H550.07z"/>
<path d="M652.05,90.73C624.22,52.1,583.1,24.89,537.4,13.88c14.12,17.65,25.75,43.62,34.27,76.85H652.05z"/>
<path d="M585.17,195.41h103.85c-1.66-29.29-9.76-57.95-23.89-83.91h-88.69C581.43,137.67,584.55,166.13,585.17,195.41z"/>
<path d="M654.54,336.44c-13.71-8.52-29.08-13.71-45.49-15.58H583.3c-6.44,0.62-12.25,1.66-17.45,3.32
	c-17.24,4.78-33.23,13.5-46.52,25.55c-2.91,2.7-7.06,3.53-10.8,1.87c-3.74-1.45-6.23-4.98-6.44-8.93
	c-0.83-9.97-2.7-19.52-6.02-28.87c-13.5-39.46-47.36-68.33-88.27-75.19l0,0l0,0c-6.65-1.04-13.09-1.66-19.73-1.66
	c-33.02,0-64.18,14.33-85.78,39.26l0,0c-16.41,18.9-26.17,41.96-28.04,66.67c-0.21,3.95-2.91,7.48-6.44,8.93
	c-3.74,1.45-7.89,0.62-10.8-2.08c-20.98-19.11-48.19-29.7-76.64-29.7c-62.93,0-114.23,51.3-114.23,114.23s51.3,114.23,114.23,114.23
	h415.4C658.7,548.5,710,497.2,710,434.27C710,394.6,688.81,357,654.54,336.44z"/>
<path d="M388.07,216.18h-93.26c0.62,11.22,2.08,22.43,4.78,33.23C323.89,228.23,355.25,216.18,388.07,216.18z"/>
<path d="M398.66,296.7h-10.59c3.53,0,7.06,0.62,10.59,1.04C398.66,297.32,398.66,297.11,398.66,296.7z"/>
<path d="M419.43,220.34c44.66,10.59,81,42.99,95.96,86.82c1.87,5.19,3.32,10.38,4.57,15.58c10.38-7.06,22.02-12.46,33.85-16.41
	c6.44-27.83,9.97-58.78,10.59-90.35H419.43C419.43,217.64,419.43,218.88,419.43,220.34z"/>
<path d="M555.06,111.5H428.78c-5.61,25.96-8.72,54.42-9.35,83.91H564.2C563.78,165.92,560.66,137.46,555.06,111.5z"/>
</svg>
