<?xml version="1.0" encoding="utf-8"?>
<!-- Generator: Adobe Illustrator 23.0.3, SVG Export Plug-In . SVG Version: 6.00 Build 0)  -->
<svg version="1.1" id="Layer_1" xmlns="http://www.w3.org/2000/svg" xmlns:xlink="http://www.w3.org/1999/xlink" x="0px" y="0px"
	 viewBox="0 0 1000 1000" style="enable-background:new 0 0 1000 1000;" xml:space="preserve">
<style type="text/css">
	.st0{fill:#0E0A0A;}
	.st1{fill-rule:evenodd;clip-rule:evenodd;fill:#643416;}
	.st2{fill:#B24826;}
	.st3{fill:#D2865B;}
</style>
<g>
	<g>
		<path class="st0" d="M846.24,451.24c0,2.14-1.1,5.35-1.1,7.49c2.68-3.58,7.06-8.32,13.69-11.21c5.97-2.6,10.89-2.45,13.88-2.7
			c6.37-0.53,12.43-5.69,30.88-22.47c17.64-16.05,33.08-36.38,40.8-58.85c19.85-64.2-19.85-140.16-56.24-191.52
			c-18.9-27.11-45.16-48.28-76.48-51.11c-9.32-0.84-17.48,0.78-33.8,4.03c-16.09,3.2-53.61,11-93.5,35.92
			c-42.2,26.35-35.49,39.65-53.17,42.19c-41.27,5.93-75.08-58.87-167.62-143.37c-37.49-34.24-86.02-36.38-123.51,1.07
			c-10.72,10.71-18.19,21.01-41.91,73.83c-27.57,61.41-26.66,66.22-36.18,71.18c-19.62,10.23-32.24-5.69-101.67-9.12
			c-11.03-0.55-25.75-0.88-43.36,4.53c-12.31,3.78-23.88,9.76-34.94,17.94c-48.8,36.07-61.67,109.31-63.96,124.11
			c-5.98,38.58-9.64,62.16,4.17,83.94c14.11,22.27,35.98,26.1,56.11,61.22c7.66,13.36,11.55,20.14,12.24,30.61
			c1.37,20.56-11.33,29.09-27.31,70.33c-5.11,13.19-8.22,21.23-10.12,32.96c-2.52,15.59-1.94,31.42,1.29,48.36
			c7.11,37.25,41.57,110.39,105.87,129.46c20.93,6.21,53.98,9.34,84.33,7.63c25.11-1.42,38.41-5.6,52.66,2.83
			c18.88,11.16,18.68,32.2,27.94,53.29c20.33,46.29,81.67,82.43,129.52,78.56c37.86-3.06,76.53-31.93,131.23-72.76
			c12.14-9.06,21.9-17.07,37.73-19.44c30.48-4.56,46.22,17.36,88.2,37.1c47.73,22.45,90.92,23.99,110.19,24.49
			c27.4,0.7,60.14,1.15,94.88-17.34c16.08-8.56,44.55-23.71,56.11-56.11c8.85-24.8,6.57-56.31-8.61-79.67
			c-20.14-31.01-75.13-66.35-92.4-77.45c-1.67-1.07-9.1-5.84-8.16-9.18c2.68-9.55,66.59,17.2,99.79-10.2
			c17.26-14.25,19.86-37.91,22.64-63.26c4.56-41.54-9.06-72.65-12.24-79.58c-10.74-23.37-24.65-37.1-39.79-52.03
			c-21.49-21.2-32.23-31.8-45.63-31.3c-17.51,0.64-28.83,17.24-52.38,15.64c-2.35-0.16-4.77-0.44-6.97,1.06
			c-13.83,9.49,6.65,52.5,6.97,52.44c0.48-0.1-26.45-107.19-63.08-108.42c-19.72-0.66-21.82,30.06-58.87,42.23
			c-52.87,17.37-118.3-22.29-125.3-14.45c-4.78,5.36,18.48,32.08,54.35,41.12c96.49,24.3,250.28-87.96,237.29-104.33
			c-9-11.34-106.26,12.86-107.47,35.43c-0.57,10.6,20.32,16.16,22.27,35.66c1.15,11.51-7.03,14.1-5.97,25.5
			c2.2,23.63,26.3,47.42,40.16,45.11C841.64,500.61,847.79,478.97,846.24,451.24z"/>
	</g>
</g>
<path class="st1" d="M760.94,346.81"/>
<g>
	<g>
		<path class="st2" d="M811.4,458.15c0,1.96-1.01,4.91-1.01,6.88c9.12-3.93,17.22-7.86,25.33-12.77
			c9.12-5.89,20.26-12.77,28.37-20.63c16.21-14.73,30.4-33.4,37.49-54.03c18.24-58.94-18.24-128.68-51.67-175.83
			c-23.3-33.4-58.77-56.97-101.32-43.22c-53.7,16.7-68.9,91.35-134.76,71.71C541.88,208.65,510.47,144.8,459.8,98.63
			c-34.45-31.43-79.03-33.4-113.48,0.98c-18.24,18.66-31.41,44.2-38.5,67.78c-6.08,22.59-1.01,65.81-27.36,76.62
			c-26.34,10.81-71.94-16.7-99.3-19.65c-27.36-1.96-50.66,4.91-71.94,20.63c-37.49,26.52-56.74,70.72-58.77,113.94
			c-1.01,23.57,4.05,48.13,13.17,70.72c12.16,26.52,31.41,39.29,47.62,60.9c28.37,39.29-4.05,59.92-19.25,94.3
			c-11.15,24.56-13.17,48.13-8.11,74.65c10.13,51.08,43.57,104.12,97.27,118.86c27.36,7.86,56.74,3.93,84.1,1.96
			c45.6-2.95,56.74,16.7,72.95,54.03c19.25,44.2,63.83,74.65,113.48,74.65c55.73,0,83.09-34.38,120.57-66.8
			c42.56-36.34,79.03-12.77,123.61,6.88c30.4,12.77,60.79,22.59,93.22,27.5c46.99,6.51,92.88,2.37,124.33-25.34
			c8.07-7.11,22.64-19.17,27.65-39.49c8.78-35.54-17.92-67.77-21.04-71.44c-35.91-42.11-89.49-29.09-97.95-59.18
			c-3.96-14.08,3.47-32.28,15.3-39.79c24.78-15.72,56.4,23.33,88.49,9.31c24.27-10.6,31.37-43.79,33.44-55.01
			c5.07-27.5-4.05-54.03-15.2-79.57c-30.4-70.72-74.98-52.06-141.85-57.95c-3.06-0.27-5.11,0.09-6.4,0.97
			c-12.71,8.71,6.11,48.2,6.4,48.14c0.44-0.09-24.31-98.41-57.95-99.53c-18.12-0.61-20.05,27.6-54.09,38.77
			c-48.58,15.95-108.7-20.47-115.12-13.26c-4.39,4.92,16.98,29.46,49.93,37.75C713.7,493.3,855,390.23,843.06,375.2
			c-8.26-10.41-97.63,11.81-98.74,32.53c-0.52,9.73,18.67,14.84,20.46,32.74c1.06,10.56-6.46,12.94-5.49,23.41
			c2.02,21.7,24.16,43.54,36.9,41.42C807.17,503.47,812.82,483.61,811.4,458.15z"/>
	</g>
</g>
<path class="st3" d="M-145.1,285.41"/>
<path class="st3" d="M477.25,598.52"/>
<path d="M705.16,704.63c-0.37,9.18-3.26,18.08-8.34,25.74c-4.35,7.01-7.85,10.51-10.51,10.51c-1.28-0.29-2.5-0.78-3.62-1.45
	l-4.35,4.35c-3.87,4.11-6.89,6.16-9.06,6.16l-3.99-0.73l0.72-9.06l1.81-20.66l-0.36-14.86l4.35-43.86l-2.54-19.21l-1.45-42.41
	l-1.45-14.86l0.73-36.25l-1.09-23.93l1.09-14.14l-3.99-46.76l3.26-9.42l-4.35-2.54v-8.7l-3.26-21.75l0.36-20.66l-2.54-8.7
	l-6.16,2.17l-2.18,4.35l1.09,10.51l-13.05,29l-0.73,7.98l-3.99,5.8l-2.54,9.79l-3.63,7.61l-1.45,13.05l-6.89,21.75l-1.09,7.97
	c-4.58,5.35-8.37,11.33-11.24,17.76l-7.98,26.82l-22.48,55.83l-16.31,43.14l-3.99,8.7l-14.5,19.94c-1.69,1.63-2.72,3.82-2.9,6.16
	l0.73,1.45c0.72,3.71,1.2,7.47,1.45,11.24l-0.36,3.63c-2.74,0.47-5.2,1.96-6.89,4.17c-1.88,3.08-3.22,6.45-3.99,9.97
	c-1.39,5.98-3.21,11.86-5.44,17.58c-1.17,2.89-3.04,5.44-5.44,7.43c-3.09,2.13-6.53,3.73-10.15,4.71
	c-2.95-4.32-5.44-8.94-7.43-13.78c-0.83-3.58-1.37-7.21-1.63-10.87l-2.18-2.9c0.15-4.78-2.18-9.31-6.16-11.96l-2.17,2.9l-3.63-9.43
	l-6.16-23.92l-5.08-10.15l-5.44-22.47l-6.16-13.41c2.06-5.2,3.16-10.72,3.26-16.31c0.28-2.78-0.36-5.58-1.81-7.97l-7.97-9.79
	l-31.54-89.9l-7.61-23.56h0.36l1.81-9.79l-4.35-11.96l-1.45-10.87l-5.07,3.62l-2.9-7.61c-3.78-8.64-7.1-17.48-9.97-26.46
	c-1.33-4.83-2.96-12.08-4.89-21.75c-3.82,0.37-7.35-2.09-8.34-5.8l-3.63,11.96h-3.99l-1.09,2.9c2.31,4.62,3.55,9.7,3.63,14.86
	l-1.81,27.55c0,4.35-0.12,7.79-0.36,10.33c-0.12,1.99-0.54,3.95-1.27,5.8c-0.6,1.33-1.87,3.81-3.8,7.43l6.16,17.76l-1.09,9.06
	l-0.36,25.74l-1.45,15.59l1.45,78.3l-3.26,11.6c2.37,6.76,3.6,13.86,3.63,21.03v7.25c-3.41,0.17-6.56,1.91-8.52,4.71
	c-1.79,4.62-2.72,9.54-2.72,14.5l9.43,4.71l0.36,7.98v8.34c0.54,4.59-0.22,9.23-2.17,13.41l-18.85,18.49l-9.42,10.87l-3.26,1.09
	l-5.44-1.09l-0.37-4.35l-1.09-6.52l4.71-17.04v-35.16l3.99-43.5l-0.36-23.2l-0.36-7.98l0.73-11.24l-0.36-9.06
	c2.71-3.41,4.23-7.61,4.35-11.96l2.9-2.18c-0.11-2.98-0.72-5.92-1.81-8.7l-2.9-9.06c0.02-0.97-0.04-1.94-0.18-2.9
	c-0.12-0.74-0.31-1.47-0.54-2.17c0.24-4.33,1.76-8.49,4.35-11.96c-2.63-5.82-4.11-12.1-4.35-18.49v-2.17l1.81-44.59l-1.81-38.79
	l0.72-7.97l8.34,3.63c1.28-2.48,2.02-5.19,2.18-7.98v-2.54l-11.24-1.45l-0.73-17.76l7.97-0.73l1.09-7.25
	c-0.17-4.62-2.99-8.72-7.25-10.51l-2.54-19.94h2.54l0.73-4.71l-3.99-35.53l0.36-17.04l-4.71-14.14c0.55-5.72,3.96-10.77,9.06-13.41
	l4.71,1.45l3.26-9.43l5.07-3.26l11.24-12.32c1.62-2.07,3.94-3.49,6.53-3.99l5.44,1.81c-0.2,3.39,0.3,6.78,1.45,9.97
	c1.4,2.55,3.39,4.72,5.8,6.34c0.48,3.14,1.03,5.98,1.63,8.52c0.82,3.17,1.92,6.26,3.26,9.24c1.57,3.62,3.81,8.82,6.71,15.59
	l-2.18,7.97l-2.54,11.96l1.09,4.35l7.61,5.44l6.16,27.19l-5.07,11.24l2.9,2.17l2.17,7.61c4.83,0.48,8.94,4.95,12.33,13.41
	l7.97,25.74l9.43,38.06c-3.51,3.69-5.78,8.38-6.53,13.41l2.54,8.7l5.44,0.73c2.13,0.1,4.13,1.01,5.62,2.54
	c1.31,2.5,2.23,5.19,2.72,7.97l-4.71,10.51c1.93,3.38,3.63,5.07,5.07,5.07h2.9l3.26,6.53c4.41,10.25,7.69,20.94,9.79,31.9
	l-1.81,11.24l-1.81,8.34l4.71,3.63l5.07,1.45l5.8,11.24l9.79,14.86l2.54,14.14l5.44,7.25l6.52,23.92l5.8,8.7l7.98,23.2l4.35,5.08
	l6.16-8.34l17.76-29.36l9.43-23.2l8.34-22.11l11.96-30.45l23.2-77.94l9.06-20.3l2.54-22.84l12.69-41.69l2.18-11.24l3.26-1.45
	l2.9-3.62v-2.9l3.99-2.9l-0.36-6.16l-4.71-2.9c0.17-6.25,1.91-12.36,5.08-17.76l4.71-2.9l4.71-5.44c-2.18-5.6-4.72-11.05-7.61-16.31
	c2.28-4,3.64-8.46,3.99-13.05c0.03-1.34-0.09-2.68-0.36-3.99l4.35-7.25l7.98-17.04l14.5-17.76c6.53-7.98,10.39-11.96,11.6-11.96
	l6.16,2.17l-1.81,24.65l2.18,2.9l4.71-0.73c4.59,0,6.89,1.93,6.89,5.8l-0.36,14.14l-1.81,11.96l-3.26-1.45l-1.09,6.53l3.63,13.41
	l1.09,77.21v3.63c0.11,3.39-0.64,6.76-2.17,9.79l-6.53,13.41c-1.02,2.78-1.39,5.76-1.09,8.7c0.72,2.24,2.11,4.2,3.99,5.62
	c1.91,0.95,4.03,1.39,6.16,1.27l0.72,13.41l-1.09,59.81l3.99,26.1l2.17,45.31l2.18,30.45c-0.13,5.02-0.86,10.01-2.18,14.86
	c1.84,3.03,3.19,6.33,3.99,9.79c0.48,2.66,0.97,9.55,1.45,20.66l1.09,28.28L705.16,704.63z"/>
</svg>
