<svg id="Layer_1" data-name="Layer 1" xmlns="http://www.w3.org/2000/svg" viewBox="0 0 160.63932 95.15077"><defs><style>.cls-1{fill:#633313;}.cls-2{isolation:isolate;}.cls-3{fill:#5ca044;}</style></defs><title>MUD_LOGO</title><path class="cls-1" d="M159.89258,27.68226a6.07637,6.07637,0,0,0-.58724.61741c-1.89433,1.40634-1.93,1.89-5.23,1.64-.63-.05-1.27-.1-1.9-.17a58.13785,58.13785,0,0,0-29.77,4.56c-3.29,1.41-3.35,3.29-.3,4.88.96.5,2.06.91,2.96,1.44,2.66,1.58,2.51,3.61-.29,5.09-.72.38-1.45.74-2.15,1.13-3.71,2.03-3.06,4.3,1.5,5.65a25.622,25.622,0,0,0,10.53.52c6.01-.73,10.51.86,13.89,3.57,5.4,4.33,4.97,9.29,3.36,14.21-.71,2.18-4.2,3.05-7.46,2.29a9.07806,9.07806,0,0,1-3.69-1.76,14.6309,14.6309,0,0,1-2.99-3.24,21.78112,21.78112,0,0,1-2.65-5.17c-1.49-4.32-6.39-6.48-13.15-7.52a6.3895,6.3895,0,0,0-4.56.78c-3.2,1.98-3.51,3.81-.87,6.3,1.7,1.6,3.57,3.14,5.23,4.76,2.07,2.03,4.19,4.06,4.36,6.54.19,2.71-4.37,4.5-8.57,3.39-2.22-.59-2.89-1.7-3.07-2.98a34.33149,34.33149,0,0,0-1.42-6.49c-.64-1.83-2.32-3.22-5.05-4.13a10.31667,10.31667,0,0,0-6.43-.07c-2.03.64-2.11,1.79-1.99,2.97.09.9.14,1.8.21,2.7.08,1.17-.98,1.84-2.73,2.23a4.978,4.978,0,0,1-4.23-.76,10.10227,10.10227,0,0,1-2.78-2.97c-.92-1.42-1.68-2.87-2.62-4.28a3.20559,3.20559,0,0,0-3.09-1.28,3.30186,3.30186,0,0,0-2.95,1.42,4.38832,4.38832,0,0,0-.73,3.63,32.58,32.58,0,0,0,5.25,10.17,75.65345,75.65345,0,0,1,4.96,7.09,3.53611,3.53611,0,0,1,.01,4.04c-1.35,1.91-4.46,2.13-6.51.46a7.85463,7.85463,0,0,1-2.58-3.34c-1.02-2.85-1.04-5.75-1.55-8.63a28.06128,28.06128,0,0,0-6.42-13.92c-1.43-1.66-3.57-1.81-5.6-.37a3.79539,3.79539,0,0,0-1.15,1.24c-1.02,1.82-.75,3.56.9,5.21a7.70249,7.70249,0,0,1,2.48,7.12,4.85106,4.85106,0,0,1-1.92915,2.56952,7.895,7.895,0,0,1-3.86718.84375,8.53423,8.53423,0,0,1-4.78124-1.40625,3.53,3.53,0,0,1-1.15243-1.397,4.24429,4.24429,0,0,1-.19-4.46c.93-2.2,2.31-4.35,2.35-6.67a3.83783,3.83783,0,0,0-1.92-3.57c-1.39-.9-2.22-.9-3.48.05a11.60824,11.60824,0,0,0-3.2,3.8,51.37467,51.37467,0,0,0-5,12.88c-.79,3.24-1.37,6.5-2.47,9.71-.92694,2.72228-2.863,4.97806-7.22975,6.22849a4.48121,4.48121,0,0,1-.66787.09153l-.907.15757a4.981,4.981,0,0,1-1.52008.02859l-1.3764-.18612-.51966-.14952a3.84186,3.84186,0,0,1-1.71924-1.70054c-1.57-2.86.17-5.34,2.52-7.7,5.63-5.65,10.46-11.51,13.53-17.84,1.19-2.46,2.23-4.95,3.33-7.42.23-.52.43-1.07-.6-1.37a2.70866,2.70866,0,0,0-2.48.51,4.24464,4.24464,0,0,0-1.27,1.52c-.65,1.02-1.87,1.47-3.68,1.49-3.32.02-5.18-1.2-4.78-3.16a14.87923,14.87923,0,0,0,.53-3.11c-.02-1.47-1.8-2.9-3.69-3.21-2-.32-3.35.14-5.05,1.81a45.81725,45.81725,0,0,1-8.71,6.58c-2.44,1.46-4.99,1.66-6.93.53-2.89-1.69-3.18-3.67-.81-5.14a16.62415,16.62415,0,0,1,4.07-1.73c2.72-.8,5.45-1.58,8.19-2.36,3.36-.96,5.35-2.53,5.79-4.72.19-.95.03-2-1.72-2.45a4.63416,4.63416,0,0,0-3.75.9,26.81456,26.81456,0,0,0-2.79,1.95c-1.44,1.14-2.77,2.32-4.19,3.47-5.13,4.13-15.13461,5.01257-17.441.60972a8.29875,8.29875,0,0,1-.56836-1.90429,5.93116,5.93116,0,0,1-.11061-.73227L.07867,48.47637a5.18852,5.18852,0,0,1,.04456-2.02419l.15209-.68534c.11648-.24055.13991-.3343.29333-.64046,1.08295-2.16116,4.02189-2.67866,6.36668-3.27672a51.31637,51.31637,0,0,1,10.11-1.04,99.76029,99.76029,0,0,0,21.33-3.04c1.33-.34,2.85-.68,2.6-1.77-.24-1.06-1.71-1.4-3.29-1.56-.71-.07-1.42-.13-2.14-.18-2.14-.15-4.3-.23-6.43-.44-2.29-.23-3.59-1.19-4.2-2.44-.42-.86-.2-1.69,1.15-2.3a7.08182,7.08182,0,0,1,5.37-.04c.91.3,1.82.59,2.75.87,2.22.65,4.4,1.36,6.68,1.92a6.75874,6.75874,0,0,0,4.89-.61,1.59,1.59,0,0,0,1.03-2,1.56907,1.56907,0,0,0-.38-.63,17.35369,17.35369,0,0,0-8.83-6.71,19.583,19.583,0,0,1-6.12-3.12,10.86723,10.86723,0,0,1-3.88-10.62,4.74064,4.74064,0,0,1,1.99-3.01,6.15154,6.15154,0,0,1,6.29-.66,5.357,5.357,0,0,1,3.77,3.95c.63,2.58,1.3,5.16,1.88,7.75.71,3.16,3.04,5.76,7.31,7.72a3.88355,3.88355,0,0,0,3.05.44c1.25-.42,1.6-1.14,1.46-1.96a4.81147,4.81147,0,0,0-.26-.84,8.58257,8.58257,0,0,1,.52-7.98,4.75658,4.75658,0,0,0-.78-6.07,36.49689,36.49689,0,0,1-2.77-3.31c-1.09-1.52-.62-2.46,1.54-3.51A3.28772,3.28772,0,0,1,52.66318.17482l.71187-.1045L53.52064.035A1.80578,1.80578,0,0,1,54.09417.013l.72353.02246.58562.06852a.99259.99259,0,0,1,.80911.56155,5.10126,5.10126,0,0,1,.3129,1.95418c-.02,1.85.03,3.7,0,5.55a4.753,4.753,0,0,0,1.26,3.59,13.104,13.104,0,0,1,3.83,7.99c.1.98.73,1.76,2.53,1.98,1.86.23,3.5.1,4.57-.99.6-.61,1.32-1.19,1.93-1.8,2.67-2.71,7.36-2.8,10.28-1.13a6.25762,6.25762,0,0,0,4.01.57c3.88-.54,5.78-2.41,4.09-4.6-2.67-3.44-1.47-6.57,1.49-9.62,2.46-2.54,9.96-2.56,12.68-.12,1.9,1.7,1.44,3.42.44,5.18-1.07,1.89-2.22,3.76-3.27,5.65a5.65664,5.65664,0,0,0-.81,3.78c.3,1.65,2.11,2.66,4.47,3.25a6.65739,6.65739,0,0,0,5.69-1.14c1.03-.72,2.13-1.41,3.2-2.11a10.04935,10.04935,0,0,1,3.82-1.66c1.8-.33,3.7-.01,4.37.89,1.2,1.6,1.76,3.22.33,4.93-1.51,1.81-3.92,2.95-6.98,3.69-1.55.38-3.17.67-4.68,1.1-1.69.48-2.88,1.32-2.67,2.48.2,1.12,1.45,1.86,3.31,2.21a16.04194,16.04194,0,0,0,9.5-1.03c5.33-2.26,10.12-4.92,15.5-7.15a40.06044,40.06044,0,0,1,16.27-2.82c3.5477.06748,6.63073.75766,8.27238,2.78736a2.14857,2.14857,0,0,1,.465.672,3.92307,3.92307,0,0,1,.21094,1.03063A3.96743,3.96743,0,0,1,159.89258,27.68226Z"/><g class="cls-2"><path class="cls-3" d="M70.61029,48.09064a1.62461,1.62461,0,0,1-.26953.832q-.21094.33986-.33985.33985a.41126.41126,0,0,1-.11718-.04688l-.14063.14063q-.1875.19922-.293.19922l-.1289-.02344.02343-.293.0586-.668-.01172-.48047.14062-1.418-.082-.62109-.04687-1.37109L69.35638,44.2l.02344-1.17188-.03516-.77344.03516-.457L69.25091,40.286l.10547-.30468-.14062-.082V39.618l-.10547-.70313.01172-.668-.082-.28125-.19922.07031-.07031.14063.03515.33984-.42187.9375-.02344.25782-.12891.1875-.082.3164-.11719.2461-.04687.42187-.22266.70313-.03515.25781a2.35985,2.35985,0,0,0-.36328.57422l-.25782.86718-.72656,1.80469-.52734,1.39453-.12891.28125-.46875.64453a.30986.30986,0,0,0-.09375.19922l.02344.04688a2.9511,2.9511,0,0,1,.04687.36328l-.01172.11719a.35751.35751,0,0,0-.22265.13476,1.04523,1.04523,0,0,0-.12891.32227,4.14287,4.14287,0,0,1-.17578.56836.61041.61041,0,0,1-.17578.24023,1.07743,1.07743,0,0,1-.32813.15235,2.422,2.422,0,0,1-.24023-.44532,2.28426,2.28426,0,0,1-.05273-.35156l-.07032-.09375a.448.448,0,0,0-.19922-.38672l-.07031.09375-.11719-.30469-.19921-.77343-.16407-.32813-.17578-.72656-.19922-.43359a1.50619,1.50619,0,0,0,.10547-.52735.41627.41627,0,0,0-.05859-.25781l-.25781-.31641-1.01954-2.90625-.24609-.76172h.01172l.05859-.3164-.14062-.38672-.04688-.35156-.16406.11718-.09375-.24609a8.85132,8.85132,0,0,1-.32226-.85547q-.06446-.23437-.15821-.70312a.25372.25372,0,0,1-.26953-.1875l-.11719.38672h-.1289l-.03516.09375a1.11309,1.11309,0,0,1,.11719.48046l-.0586.89063q0,.21093-.01171.334a.61225.61225,0,0,1-.041.1875q-.0293.06446-.123.24024l.19922.57422-.03515.293-.01172.832-.04688.5039.04688,2.53125-.10547.375a2.07384,2.07384,0,0,1,.11719.67969V46.743a.35868.35868,0,0,0-.27539.15234,1.29919,1.29919,0,0,0-.0879.46875l.30469.15234.01172.25782v.26953a.80172.80172,0,0,1-.07031.43359l-.60938.59766-.30468.35156-.10547.03516-.17578-.03516L58.54,49.286l-.03516-.21093.15234-.55078V47.38752l.12891-1.40625-.01172-.75-.01172-.25782.02344-.36328-.01172-.293a.65.65,0,0,0,.14063-.38671l.09375-.07032a.85541.85541,0,0,0-.0586-.28125l-.09375-.293a.595.595,0,0,0-.00586-.09375.46249.46249,0,0,0-.01757-.07031.71315.71315,0,0,1,.14062-.38672,1.59767,1.59767,0,0,1-.14062-.59765V42.0672l.05859-1.4414L58.833,39.37189l.02343-.25781.26953.11719a.64129.64129,0,0,0,.07032-.25782v-.082l-.36328-.04687-.02344-.57422.25781-.02344.03516-.23437a.38383.38383,0,0,0-.23438-.33985l-.082-.64453h.082l.02344-.15234-.12891-1.14844.01172-.55078-.15234-.457a.5469.5469,0,0,1,.293-.4336l.15234.04688.10547-.30469.16406-.10547.36328-.39843a.35209.35209,0,0,1,.21094-.12891l.17578.05859a.81.81,0,0,0,.04688.32227.59147.59147,0,0,0,.1875.20508q.02343.15234.05273.27539a1.86752,1.86752,0,0,0,.10547.29883q.07617.17577.2168.5039l-.07032.25781-.082.38672.03516.14063.24609.17578.19922.87891-.16406.36328.09375.07031.07031.24609q.23438.02345.39844.4336l.25781.832.30469,1.23047a.79863.79863,0,0,0-.21094.43359l.082.28125.17578.02344a.27179.27179,0,0,1,.18165.082.87989.87989,0,0,1,.08789.25781l-.15235.33985q.09375.16405.16406.16406h.09375l.10547.21094a4.98961,4.98961,0,0,1,.31641,1.03125l-.05859.36328-.0586.26953.15235.11719.16406.04687.1875.36328.3164.48047.082.457.17578.23438.21093.77343.1875.28125.25782.75.14062.16407.19922-.26953.57422-.94922.30469-.75.26953-.71485.38672-.98437.75-2.51953.293-.65625.082-.73828.41015-1.34766.07032-.36328.10546-.04688.09375-.11718v-.09375l.12891-.09375-.01172-.19922-.15234-.09375a1.20045,1.20045,0,0,1,.16406-.57422l.15234-.09375.15235-.17578a4.422,4.422,0,0,0-.2461-.52735,1.00606,1.00606,0,0,0,.12891-.42187.55635.55635,0,0,0-.01172-.12891l.14063-.23437.25781-.55078.46875-.57422q.31641-.38673.375-.38672l.19922.07031-.0586.79688.07032.09375.15234-.02344q.22266,0,.22266.1875l-.01172.457-.0586.38672-.10546-.04688-.03516.21094.11719.43359.03515,2.4961v.11719a.65319.65319,0,0,1-.07031.3164l-.21094.4336a.629.629,0,0,0-.03515.28125.3677.3677,0,0,0,.1289.18164.39882.39882,0,0,0,.19922.041l.02344.4336-.03516,1.93359.12891.84375.07031,1.46484.07031.98438a2.03252,2.03252,0,0,1-.07031.48047,1.074,1.074,0,0,1,.12891.3164q.02343.12891.04687.668l.03516.91406Z"/><path class="cls-3" d="M83.87591,33.95783l-.01171.71484-.16407.86719.01172.43359-.02344.32813.09375.55078v.02344a1.94272,1.94272,0,0,1-.1875.65625l-.11718.30469-.17578.07031.11718.24609q.1875.36328.24024.498a.72079.72079,0,0,1,.05273.26367l-.082.70313v.38671l-.10547.04688.07031.11719-.07031.38672v.04687l.16406,1.418-.05859.28125a.3731.3731,0,0,0-.19922.31641.69864.69864,0,0,0,.22266.43359l.01172,1.00781-.07032.28125q-.03514.1875-.03515.17578a1.24591,1.24591,0,0,0,.10547.39844,1.59078,1.59078,0,0,1,.082.48047,1.1279,1.1279,0,0,1-.11719.457,3.21854,3.21854,0,0,1,.19922.33984l-.01172.9375.02344,1.17188v.15234a.87022.87022,0,0,0-.32813.16993,6.69587,6.69587,0,0,0-.5039.54492l-.082.16406-.14063-.02344-.31641.36328a1.59073,1.59073,0,0,1-.082-.48047,1.20705,1.20705,0,0,1,.12891-.62109h.11719a.56091.56091,0,0,0-.041-.25781.37418.37418,0,0,0-.19336-.12891l.02344-1.17187.05859-.082-.04687-.55079a.19517.19517,0,0,0-.12891-.07031.16059.16059,0,0,0-.03515.00586.22941.22941,0,0,0-.04688.01758l-.082.12891h-.12891a.16958.16958,0,0,0-.15234.07031l-.19922.1875-.32812.21094-1.21875,1.207-.39844.21093-.51563.41016-.71484.36328-.55078.23438a.985.985,0,0,1-.49219.22265h-.30469l-.49218.23438-.44532.02344-.293.04687-.24609-.04687-.58594-.16407-.36328-.24609-.26953-.11719-.32812-.457-.12891-.21094-.26953.04688L73.54,48.5008l-.082-.2461-.293-.33984a2.0966,2.0966,0,0,1-.082-.73828v-.1875l-.2461-.19922-.10547-.41016-.10547-.71484-.09375-.26953.23438-.59766a1.7606,1.7606,0,0,1-.293-.47461,1.43832,1.43832,0,0,1-.082-.50976,1.71889,1.71889,0,0,1,.05859-.48047l.19922-.69141.02344-.9375.12891-.1875a1.05563,1.05563,0,0,0,.21093.04688q.1172,0,.11719-.15235a.30433.30433,0,0,0-.16406-.25781v-.48047l-.16406-.07031.19921-1.44141.082-.26953.082-.21093.1875-.82032.1289-.28125.0586-.26953.19922-.28125a3.30908,3.30908,0,0,1-.02344-.38672,2.9569,2.9569,0,0,1,.36328-1.17187l-.15234-.15235-.1875.15235q-.0586-.39845-.0586-.457a.47959.47959,0,0,1,.13477-.334.4113.4113,0,0,1,.31054-.14648l.19922.02344.07032-.22266.21093-.04688.79688-.55078.22265-.14062a1.02631,1.02631,0,0,1,.17579.5039.23068.23068,0,0,1-.07032.1875l-.16406.19922-.35156.73828-.11719.11719-.01172.36328-.22265.48047-.293.59766-.17578.41015-.21094,1.14844-.1875.89063-.04688.6914-.22265.9375-.01172.4336-.14063.89062.07032.57422-.082.43359.28125,1.32422.01172.25782q-.09375.01172-.1582.14648a.71167.71167,0,0,0-.06445.31055q0,.22264.26953.293l.09375.28125.14062.55078.38672.77343.0586.25782.17578.10547.293.35156.76171.33984.49219.1875.30469.15235q.21093.35155.31641.35156.082,0,.23437-.42188l.9375-.082.16406.22266.17578-.11719.58594-.31641.22266-.24609.60937-.39844.41016-.5039.19922-.04688.55078-.5039.375-.15235.07031-.14062-.15234-.14063.1875-.17578.25781-.30469.50391-1.16015.24609-.28125a1.32088,1.32088,0,0,0,.05859-.48047v-.84375l.02344-.86719a.84511.84511,0,0,0,.15235-.24023,1.346,1.346,0,0,0,.03515-.38086l-.293-.30469-.082-2.625.10547-.23438a.99772.99772,0,0,1-.082-.33984,2.017,2.017,0,0,1,.082-.50391l-.082-.09375-.02344-.293-.05859-1.00782a1.41912,1.41912,0,0,1,.1289-.457l-.36328-.55078.09375-.375h.15235a1.433,1.433,0,0,1,.42187-.457l.17578-.09375.16407-.15234.22265.04687a1.83369,1.83369,0,0,1,.20508-.41016.34063.34063,0,0,1,.252-.07031l.082.31641Z"/><path class="cls-3" d="M98.13763,40.0047l-.082.50391.03516.57422a1.23609,1.23609,0,0,1-.1875.668l-.12891.24609-.32812.11719a.84915.84915,0,0,0-.10547.33984l.03515.04688h.082l-.04688-.15235.16406.17579-.082.16406-.04687.293-.12891.30468-.1875.38672-.63281.57422-.31641.72656-.28125.28125-.53906.84375a1.00113,1.00113,0,0,1-.36328.32813l-.60938.293-.14062.09375a.59.59,0,0,1-.082.33984l-.16407.09375-.94921.668-.57422.53906a.83039.83039,0,0,1-.55078.25782.45514.45514,0,0,1-.2461-.11719,2.756,2.756,0,0,1-.63281.36328l-.46875.21094-.30469.09375-.668.07031-.17578.04687-.43359-.23437a1.1266,1.1266,0,0,1-.60938.28125l-.04687-.09375a.43458.43458,0,0,1-.36328-.1875l-.30469-.04688v.28125a.87353.87353,0,0,1-.5625.22266,1.159,1.159,0,0,1-.38672-.07031,4.61125,4.61125,0,0,0-.77344-.26953q-.1875,0-.1875-.09375v-.07032l.12891-.19921.1875-.07032a1.66208,1.66208,0,0,1,.32812-.11718l.07032.02343.14062-.21093a.83712.83712,0,0,0,.14063-.31641v-.36328l.09375-.50391.02343-.23437v-.14063l.10547-.10547a.74669.74669,0,0,1-.1289-.43359l.04687-.69141.01172-.3164.17578-.25782a.88264.88264,0,0,1-.09375-.3164l-.01172-.375-.10547-.293.02344-.668V42.6883l.12891-.38672a1.68764,1.68764,0,0,0,.03515-.25781.54965.54965,0,0,0-.1875-.38672l-.02343-.457v-.21094a.4852.4852,0,0,1,.17578-.31641l.01172-.64453h-.19922l-.04688-.24609.03516-.6211-.082-.91406.05859-.25781-.10547-.33984L86.6767,36.5008l-.21094-.36328.17578-.52735.02344-.17578-.04688-.668-.02344-.38672a.87182.87182,0,0,1-.32812-.14062l-.22266-.11719v-.33984l.293-.16406h.6211l.35156-.22266a.83114.83114,0,0,1,.43359-.09375l.52735-.02344.293.14063.19922-.09375.15235.1289h.25781l.31641.02344.30468.04688h.01172l.26953-.07032.53907.25782.64453.02343.22265.14063.90235.15234.55078.23438.64453.16406.44531.22266.1875.09375-.02344.24609.09375.14062-.07031.14063.03516.04687-.04688.09375.04688-.02343.28125-.14063.23437-.09375.19922.09375.293.11719.17578.17578.02344.25781.07031.02344.30469-.02344q.15234,0,.35156.41016h.11719q.21093,0,.63281.43359a3.88081,3.88081,0,0,1,.76172,1.05469l-.11719.16406.02344.17578.09375.23438.16406.16406a1.84685,1.84685,0,0,1,.15235.53906.27272.27272,0,0,0-.15235.23438.24385.24385,0,0,0,.01172.09375l.23438.50391A.5628.5628,0,0,1,98.13763,40.0047Zm-1.47656-.24609a.486.486,0,0,1-.19336-.18164.975.975,0,0,1-.05273-.32227l-.07032-.02343v-.14063a1.16278,1.16278,0,0,0-.09375-.36328l-.15234-.36328.01172-.11719L95.958,38.036l-.39844-.43359a.74825.74825,0,0,1-.13477-.15234,2.44157,2.44157,0,0,1-.14648-.252q-.082-.15819-.1875-.3457H94.915a1.01612,1.01612,0,0,1-.33985-.04687l-.77343-.59766-.35157-.09375-.21093-.14063-.1875-.05859-.03516-.25781a1.29258,1.29258,0,0,0-.25781-.07031q-.082,0-.19922.14062a1.20864,1.20864,0,0,0-.41016-.23437q-.17578-.04687-.24609-.06446a.19731.19731,0,0,1-.10547-.05859q-.03516-.041-.09375-.123l-.12891-.1875a.55085.55085,0,0,1-.33984.14063.4391.4391,0,0,1-.33984-.14063l-.1875-.19922L90.204,34.743l-1.16016-.21094-.5625.07031-.11718-.09375-.07032.09375-.09375.23438-.17578-.11719-.03515.33984a2.89368,2.89368,0,0,1-.09375.76172l.04687.24609a6.27683,6.27683,0,0,1,.11719.64454l-.02344.21093-.09375-.09375h-.05859a1.94132,1.94132,0,0,0,.14062.75v.32813l-.10547-.02344q-.082.10547-.15234.10547h-.082l-.02344.23437.10547.21094a.74994.74994,0,0,1,.23437.16992.39509.39509,0,0,1,.0586.24024.2966.2966,0,0,0-.17578.24609.3426.3426,0,0,0,.01172.11719l.17578.57422L88.02435,41.868l.0586.293-.082.59766.07032.09375-.03516.43359.03516.64454a.69292.69292,0,0,1-.0586.33984,1.48652,1.48652,0,0,1-.25781.26953l.03516.35156.28125.2461v.28125l-.03516,1.418q.02345.10547.05859.3164t.07032.41016a.8212.8212,0,0,1,.04687.25781,1.09393,1.09393,0,0,1-.05859.24609h-.15235q-.15234,0-.25781.38672a3.396,3.396,0,0,0,.78516.14063l1.07812-.02344.375.04688,1.21875-.50391.1875-.02344.90235-.5039.62109-.36329.24609-.14062.17579-.22266.59765-.32812.457-.65625.1875-.11719.10547-.16406.09375-.4336.32813-.26953L95.29,44.493l.35156-.58594.05859-.28125a.70893.70893,0,0,0,.32813-.04688.19627.19627,0,0,0,.07031-.17578q0-.16405-.21094-.23437a2.73678,2.73678,0,0,0,.38672-.873,7.66433,7.66433,0,0,0,.1875-1.33008A6.59968,6.59968,0,0,1,96.66107,39.75861Z"/></g><path class="cls-1" d="M160.63366,26.83492"/></svg>