<?xml version="1.0" encoding="utf-8"?>
<!-- Generator: Adobe Illustrator 23.0.3, SVG Export Plug-In . SVG Version: 6.00 Build 0)  -->
<svg version="1.1" id="Layer_1" xmlns="http://www.w3.org/2000/svg" xmlns:xlink="http://www.w3.org/1999/xlink" x="0px" y="0px"
	 viewBox="0 0 830 507.7" style="enable-background:new 0 0 830 507.7;" xml:space="preserve">
<style type="text/css">
	.st0{fill:#5DA044;}
	.st1{fill:#643416;}
	.st2{fill:#5568B0;}
	.st3{fill:#010101;}
</style>
<g>
	
		<image style="overflow:visible;enable-background:new    ;" width="3446" height="2171" xlink:href="AAEDC325.png"  transform="matrix(0.2391 0 0 0.2391 -0.3962 9.0631)">
	</image>
</g>
<g>
	<g>
		<path class="st0" d="M360.3,283.9c-0.1,1.7-0.6,3.4-1.5,4.8c-0.8,1.3-1.5,2-2,2c-0.2,0-0.5-0.1-0.7-0.3l-0.8,0.8
			c-0.7,0.8-1.3,1.1-1.7,1.1l-0.7-0.1l0.1-1.7l0.3-3.8l-0.1-2.8l0.8-8.1l-0.5-3.6l-0.3-7.9l-0.3-2.8l0.1-6.7l-0.2-4.4l0.2-2.6
			l-0.7-8.7l0.6-1.8l-0.8-0.5v-1.6l-0.6-4l0.1-3.8l-0.5-1.6l-1.1,0.4l-0.4,0.8l0.2,2l-2.4,5.4l-0.1,1.5l-0.7,1.1l-0.5,1.8l-0.7,1.4
			l-0.3,2.4l-1.3,4l-0.2,1.5c-0.9,1-1.5,2.1-2.1,3.3l-1.5,5l-4.2,10.4l-3,8l-0.7,1.6l-2.7,3.7c-0.3,0.3-0.5,0.7-0.5,1.1l0.1,0.3
			c0.1,0.7,0.2,1.4,0.3,2.1l-0.1,0.7c-0.5,0.1-1,0.4-1.3,0.8c-0.4,0.6-0.6,1.2-0.7,1.9c-0.3,1.1-0.6,2.2-1,3.3c-0.2,0.5-0.6,1-1,1.4
			c-0.6,0.4-1.2,0.7-1.9,0.9c-0.5-0.8-1-1.7-1.4-2.5c-0.1-0.7-0.3-1.3-0.3-2l-0.4-0.5c0-0.9-0.4-1.7-1.1-2.2l-0.4,0.5l-0.7-1.8
			l-1.1-4.4l-0.9-1.9l-1-4.2l-1.1-2.5c0.4-1,0.6-2,0.6-3c0-0.5-0.1-1-0.3-1.5l-1.5-1.8l-5.9-16.7l-1.4-4.4h0.1l0.3-1.8l-0.8-2.2
			l-0.3-2l-0.9,0.7l-0.5-1.4c-0.7-1.6-1.3-3.2-1.9-4.9c-0.3-0.9-0.5-2.2-0.9-4c-0.7,0.1-1.4-0.4-1.5-1.1l-0.7,2.2h-0.7l-0.2,0.5
			c0.4,0.9,0.7,1.8,0.7,2.8l-0.3,5.1c0,0.8,0,1.4-0.1,1.9c0,0.4-0.1,0.7-0.2,1.1c-0.1,0.3-0.4,0.7-0.7,1.4l1.1,3.3l-0.2,1.7
			l-0.1,4.8l-0.3,2.9l0.3,14.5l-0.6,2.1c0.4,1.3,0.7,2.6,0.7,3.9v1.3c-0.6,0-1.2,0.4-1.6,0.9c-0.3,0.9-0.5,1.8-0.5,2.7l1.8,0.9
			l0.1,1.5v1.5c0.1,0.9,0,1.7-0.4,2.5l-3.5,3.4l-1.8,2l-0.6,0.2l-1-0.2l-0.1-0.8l-0.2-1.2l0.9-3.2v-6.5l0.7-8.1l-0.1-4.3l-0.1-1.5
			l0.1-2.1l-0.1-1.7c0.5-0.6,0.8-1.4,0.8-2.2l0.5-0.4c0-0.5-0.1-1.1-0.3-1.6l-0.5-1.7c0-0.2,0-0.4,0-0.5c0-0.1-0.1-0.3-0.1-0.4
			c0-0.8,0.3-1.6,0.8-2.2c-0.5-1.1-0.8-2.2-0.8-3.4v-0.4l0.3-8.3l-0.3-7.2l0.1-1.5l1.5,0.7c0.2-0.5,0.4-1,0.4-1.5v-0.5l-2.1-0.3
			l-0.1-3.3l1.5-0.1l0.2-1.3c0-0.9-0.5-1.6-1.3-2l-0.5-3.7h0.5l0.1-0.9l-0.7-6.6l0.1-3.2l-0.9-2.6c0.1-1.1,0.7-2,1.7-2.5l0.9,0.3
			l0.6-1.8l0.9-0.6l2.1-2.3c0.3-0.4,0.7-0.6,1.2-0.7l1,0.3c0,0.6,0.1,1.3,0.3,1.9c0.3,0.5,0.6,0.9,1.1,1.2c0.1,0.6,0.2,1.1,0.3,1.6
			c0.1,0.6,0.4,1.2,0.6,1.7c0.3,0.7,0.7,1.6,1.2,2.9l-0.4,1.5l-0.5,2.2l0.2,0.8l1.4,1l1.1,5l-0.9,2.1l0.5,0.4l0.4,1.4
			c0.9,0.1,1.7,0.9,2.3,2.5l1.5,4.8l1.8,7c-0.6,0.7-1.1,1.5-1.2,2.5l0.5,1.6l1,0.1c0.4,0,0.8,0.2,1,0.5c0.2,0.5,0.4,1,0.5,1.5
			l-0.9,2c0.4,0.6,0.7,0.9,0.9,0.9h0.5l0.6,1.2c0.8,1.9,1.4,3.9,1.8,5.9l-0.3,2.1l-0.3,1.5l0.9,0.7l0.9,0.3l1.1,2.1l1.8,2.8l0.5,2.6
			l1,1.3l1.2,4.4l1.1,1.6l1.5,4.3l0.8,0.9l1.1-1.5l3.3-5.4l1.8-4.3l1.5-4.1l2.2-5.6l4.3-14.5l1.7-3.8l0.5-4.2l2.4-7.7l0.4-2.1
			l0.6-0.3l0.5-0.7V224l0.7-0.5l-0.1-1.1l-0.9-0.5c0-1.2,0.4-2.3,0.9-3.3l0.9-0.5l0.9-1c-0.4-1-0.9-2-1.4-3c0.4-0.7,0.7-1.6,0.7-2.4
			c0-0.3,0-0.5-0.1-0.7l0.8-1.3l1.5-3.2l2.7-3.3c1.2-1.5,1.9-2.2,2.1-2.2l1.1,0.4l-0.3,4.6l0.4,0.5l0.9-0.1c0.9,0,1.3,0.4,1.3,1.1
			l-0.1,2.6l-0.3,2.2l-0.6-0.3L357,213l0.7,2.5l0.2,14.3v0.7c0,0.6-0.1,1.3-0.4,1.8l-1.2,2.5c-0.2,0.5-0.3,1.1-0.2,1.6
			c0.1,0.4,0.4,0.8,0.7,1c0.4,0.2,0.8,0.3,1.1,0.2l0.1,2.5l-0.2,11.1l0.7,4.8l0.4,8.4l0.4,5.6c0,0.9-0.2,1.9-0.4,2.8
			c0.3,0.6,0.6,1.2,0.7,1.8c0.1,0.5,0.2,1.8,0.3,3.8L360.3,283.9L360.3,283.9z"/>
		<path class="st0" d="M436.4,202.8l-0.1,4.1l-0.9,5l0.1,2.5l-0.1,1.9l0.5,3.2v0.1c-0.1,1.3-0.5,2.6-1.1,3.8l-0.7,1.8l-1,0.4
			l0.7,1.4c0.7,1.4,1.2,2.3,1.4,2.9c0.2,0.5,0.3,1,0.3,1.5l-0.5,4v2.2l-0.6,0.3l0.4,0.7l-0.4,2.2v0.3l0.9,8.1l-0.3,1.6
			c-0.7,0.4-1.1,1-1.1,1.8c0.1,1,0.6,1.8,1.3,2.5l0.1,5.8l-0.4,1.6c-0.1,0.7-0.2,1-0.2,1c0.1,0.8,0.3,1.6,0.6,2.3
			c0.3,0.9,0.5,1.8,0.5,2.8c0,0.9-0.3,1.8-0.7,2.6c0.4,0.6,0.8,1.3,1.1,2l-0.1,5.4l0.1,6.7v0.9c-0.7,0.2-1.3,0.5-1.9,1
			c-1,1-2,2-2.9,3.1l-0.5,0.9l-0.8-0.1l-1.8,2.1c-0.3-0.9-0.5-1.8-0.5-2.8c-0.1-1.2,0.2-2.5,0.7-3.6h0.7c0-0.5,0-1-0.2-1.5
			c-0.3-0.4-0.7-0.6-1.1-0.7l0.1-6.7l0.3-0.5l-0.3-3.2c-0.2-0.2-0.5-0.4-0.7-0.4c-0.1,0-0.1,0-0.2,0c-0.1,0-0.2,0.1-0.3,0.1
			l-0.5,0.7h-0.7c-0.3,0-0.7,0.1-0.9,0.4l-1.1,1.1l-1.9,1.2l-7,6.9l-2.3,1.2l-3,2.4l-4.1,2.1l-3.2,1.3c-0.8,0.7-1.8,1.1-2.8,1.3
			h-1.8l-2.8,1.3l-2.5,0.1l-1.7,0.3l-1.4-0.3l-3.4-0.9l-2.1-1.4l-1.5-0.7l-1.9-2.6l-0.7-1.2l-1.5,0.3l-1-1.1l-0.5-1.4l-1.7-2
			c-0.4-1.4-0.6-2.8-0.5-4.2v-1.1l-1.4-1.1l-0.6-2.4l-0.6-4.1l-0.5-1.5l1.3-3.4c-0.7-0.8-1.3-1.7-1.7-2.7c-0.3-0.9-0.5-1.9-0.5-2.9
			c0-0.9,0.1-1.9,0.3-2.8l1.1-4l0.1-5.4l0.7-1.1c0.4,0.1,0.8,0.2,1.2,0.3c0.5,0,0.7-0.3,0.7-0.9c0-0.6-0.4-1.2-0.9-1.5v-2.8
			l-0.9-0.4l1.1-8.3l0.5-1.5l0.5-1.2l1.1-4.7l0.7-1.6l0.3-1.5l1.1-1.6c-0.1-0.7-0.1-1.5-0.1-2.2c0.2-2.4,0.9-4.6,2.1-6.7l-0.9-0.9
			l-1.1,0.9c-0.2-1.5-0.3-2.4-0.3-2.6c0-0.7,0.3-1.4,0.8-1.9c0.4-0.5,1.1-0.8,1.8-0.8l1.1,0.1l0.4-1.3l1.2-0.3l4.6-3.2l1.3-0.8
			c0.6,0.9,0.9,1.9,1,2.9c0,0.4-0.1,0.8-0.4,1.1l-0.9,1.1l-2,4.2l-0.7,0.7l-0.1,2.1l-1.3,2.8L383,219l-1,2.4l-1.2,6.6l-1.1,5.1
			l-0.3,4l-1.3,5.4l-0.1,2.5l-0.8,5.1l0.4,3.3l-0.5,2.5l1.6,7.6l0.1,1.5c-0.4,0-0.7,0.3-0.9,0.8c-0.3,0.6-0.4,1.2-0.4,1.8
			c0,0.9,0.5,1.4,1.5,1.7l0.5,1.6l0.8,3.2l2.2,4.4l0.3,1.5l1,0.6l1.7,2l4.4,2l2.8,1.1l1.8,0.9c0.8,1.3,1.4,2,1.8,2
			c0.3,0,0.8-0.8,1.3-2.4l5.4-0.5l0.9,1.3l1-0.7l3.4-1.8l1.3-1.4l3.5-2.3l2.4-2.9l1.1-0.3l3.2-2.9l2.1-0.9l0.4-0.8l-0.9-0.8l1.1-1
			l1.5-1.8l2.9-6.6l1.4-1.6c0.3-0.9,0.4-1.8,0.3-2.8v-4.8l0.1-5c0.4-0.4,0.7-0.9,0.9-1.4c0.2-0.7,0.2-1.5,0.2-2.2l-1.7-1.8l-0.5-15
			l0.6-1.3c-0.3-0.6-0.4-1.3-0.5-2c0-1,0.2-2,0.5-2.9l-0.5-0.5l-0.1-1.7l-0.3-5.8c0.1-0.9,0.4-1.8,0.7-2.6l-2.1-3.2l0.5-2.1h0.9
			c0.6-1,1.4-1.9,2.4-2.6l1-0.5l0.9-0.9l1.3,0.3c0.3-0.8,0.7-1.6,1.2-2.4c0.4-0.3,0.9-0.5,1.4-0.4l0.5,1.8L436.4,202.8z"/>
		<path class="st0" d="M518.1,237.5c0-0.4-0.1-0.8-0.2-1.1l-1.3-2.9c-0.1-0.2-0.1-0.4-0.1-0.5c0-0.6,0.3-1.1,0.9-1.3
			c-0.1-1.1-0.4-2.1-0.9-3.1l-0.9-0.9l-0.5-1.3l-0.1-1l0.7-0.9c-1.1-2.3-2.6-4.3-4.4-6c-1.6-1.7-2.8-2.5-3.6-2.5h-0.7
			c-0.8-1.6-1.4-2.4-2-2.4l-1.8,0.1l-0.4-0.1l-0.1-1.5l-1-1l-1.7-0.7l-1.1-0.5l-1.3,0.5l-1.6,0.8l-0.3,0.1l0.3-0.5l-0.2-0.3l0.4-0.8
			l-0.5-0.8l0.1-1.4l-1.1-0.5l-2.5-1.3l-3.7-0.9l-3.2-1.3l-5.2-0.9l-1.3-0.8l-3.7-0.1l-3.1-1.5l-1.5,0.4h-0.1l-1.8-0.3l-1.8-0.1
			h-1.5l-0.9-0.7l-1.1,0.5l-1.7-0.8l-3,0.1c-0.9,0-1.7,0.1-2.5,0.5l-2,1.3h-3.6l-1.7,0.9v2l1.3,0.7c0.6,0.4,1.2,0.7,1.9,0.8l0.1,2.2
			l0.3,3.8l-0.1,1l-1,3l1.2,2.1l0.1,6.6l0.6,2l-0.3,1.5l0.5,5.2l-0.2,3.6l0.3,1.4h1.1l-0.1,3.7c-0.6,0.5-0.9,1.1-1,1.8v1.2l0.1,2.6
			c0.7,0.6,1,1.4,1.1,2.2c0,0.5-0.1,1-0.2,1.5l-0.7,2.2v4.7l-0.1,3.8l0.6,1.7l0.1,2.1c0.1,0.6,0.3,1.2,0.5,1.8l-1,1.5l-0.1,1.8
			l-0.3,4c0,0.9,0.2,1.8,0.7,2.5l-0.6,0.6v0.8l-0.1,1.3l-0.5,2.9v2.1c-0.1,0.6-0.4,1.3-0.8,1.8l-0.8,1.2l-0.4-0.1
			c-0.7,0.2-1.3,0.4-1.9,0.7l-1.1,0.4l-0.7,1.1v0.4c0,0.4,0.4,0.5,1.1,0.5c1.5,0.4,3,0.9,4.4,1.5c0.7,0.3,1.5,0.4,2.2,0.4
			c1.2,0,2.3-0.5,3.2-1.3v-1.6l1.8,0.3c0.2,0.3,0.4,0.5,0.6,0.6c-0.2-1.4,0.1-2.8,0.9-4c-1-0.1-1.9-0.3-2.8-0.6
			c0.4-1.5,0.9-2.2,1.5-2.2h0.9c0.2-0.5,0.3-0.9,0.3-1.4c0-0.5-0.1-1-0.3-1.5c-0.1-0.8-0.3-1.6-0.4-2.4c-0.1-0.8-0.3-1.4-0.3-1.8
			l0.2-8.1V267l-1.6-1.4l-0.2-2c0.6-0.5,1-1,1.5-1.5c0.3-0.6,0.4-1.3,0.3-2l-0.2-3.7l0.2-2.5l-0.4-0.5l0.5-3.4l-0.3-1.7l0.3-12
			l-1-3.3c-0.1-0.2-0.1-0.4-0.1-0.7c0.1-0.6,0.4-1.2,1-1.4c0-0.5-0.1-1-0.3-1.4c-0.4-0.4-0.8-0.7-1.3-1l-0.6-1.2l0.1-1.3h0.5
			c0.3,0,0.6-0.2,0.9-0.6l0.6,0.1v-1.9c-0.5-1.4-0.8-2.8-0.8-4.3h0.3l0.5,0.5l0.1-1.2c-0.2-1.3-0.4-2.5-0.7-3.7l-0.3-1.4
			c0.4-1.4,0.6-2.9,0.5-4.4l0.2-2l1,0.7l0.5-1.3l0.4-0.5l0.7,0.5l3.2-0.4l6.6,1.2l2.9,0.7l1.1,1.1c0.5,0.5,1.2,0.8,2,0.8
			c0.7,0,1.4-0.3,2-0.8l0.7,1.1c0.2,0.3,0.4,0.5,0.5,0.7c0.2,0.2,0.4,0.3,0.6,0.3c0.3,0.1,0.7,0.2,1.4,0.4c0.9,0.3,1.7,0.7,2.4,1.3
			c0.5-0.5,0.8-0.8,1.1-0.8c0.5,0.1,1,0.2,1.5,0.4l0.2,1.5l1.1,0.3l1.2,0.8l2,0.5l4.4,3.4c0.6,0.2,1.3,0.3,2,0.3h1
			c0.4,0.7,0.8,1.4,1.1,2c0.3,0.5,0.5,1,0.8,1.4c0.2,0.3,0.5,0.6,0.8,0.9l2.3,2.5l0.9,1.2l-0.1,0.7l0.9,2.1c0.3,0.7,0.5,1.4,0.5,2.1
			v0.8l0.4,0.1c0,0.6,0.1,1.3,0.3,1.8c0.3,0.4,0.6,0.8,1.1,1c-0.6,2.3-1,4.6-1.1,6.9c-0.1,2.6-0.5,5.1-1.1,7.6
			c-0.4,1.8-1.2,3.5-2.2,5c0.8,0.3,1.2,0.7,1.2,1.3c0,0.4-0.1,0.8-0.4,1c-0.6,0.2-1.2,0.3-1.9,0.3l-0.3,1.6l-2,3.4l-1.1,2.3
			l-1.9,1.5l-0.5,2.5l-0.6,0.9l-1.1,0.7l-2.5,3.5c0.8,0.3,1.5,0.9,2,1.6l0.4-0.3l3.5-1.7c0.8-0.4,1.5-1.1,2.1-1.9l3.1-4.8l1.6-1.6
			l1.8-4.2l3.6-3.3l1.1-2.2l0.7-1.8l0.3-1.7l0.5-0.9l-0.9-1l0.3,0.9h-0.5l-0.2-0.3c0.1-0.7,0.3-1.3,0.6-2l1.9-0.7l0.7-1.4
			c0.7-1.1,1.1-2.5,1.1-3.8l-0.2-3.3L518.1,237.5z"/>
	</g>
</g>
<path class="st1" d="M955.4,198.9"/>
<g>
	<path class="st2" d="M618.4,210.3c-4.7-0.1-8.5-4.7-8.7-5c-2-2.6-2.9-5.9-3.3-7.4c-0.3-1.2-0.8-3-0.8-4.6c0-5.2,5.2-9.2,7.1-10.8
		c11.4-9.5,22.2-30.1,22.8-43.1c0.2-3.3,1-4,2.1-6.6c4.3-11.1,11.5-17.7,14.7-20.8c19.4-18.4,18.3-23.1,43.1-44.7
		c14.2-12.4,25-19.9,36.1-27.7c23.1-16.2,34.8-24.2,40.4-20.6c8.9,5.6-0.7,35.6-1.7,38.7C758.3,93.9,733,114,671.4,170.3
		c-2.5,2.3-5,4.9-9,7.9c-25.5,19.3-25.5,16.1-32.2,23.3C625.8,206.1,623,210.4,618.4,210.3z"/>
	<path class="st0" d="M503.3,280.1c0.4-3.1,11.6-1,22-7.8c6.1-4,7.7-8.2,16.1-23.9c9.6-17.9,14.6-27.1,21.3-35.6
		c12-15.1,20.7-18.6,25.2-20c7.5-2.2,16.6-2.4,17.7,0.2c0.4,1-0.7,1.8-0.5,3.9c0.1,0.6,0.3,2.6,3.7,6c4,4,6.2,3.7,7.6,6.4
		c1.2,2.4,0.8,4.9,0.5,6.4c-4.2,22.2-1.9,23.1-5.7,32.1c-9,21.1-28,31.7-33.5,34.6c-2.6,1.4-26.9,14-55,7.3
		C512.9,287.7,502.9,283.1,503.3,280.1z"/>
	<g>
		<path class="st3" d="M650.1,162.1C650.1,161.8,650.1,161.8,650.1,162.1c-1.7,5.7,2,14,8.8,14.3c0.6,0,1.1-0.8,0.6-1.4
			c-2.3-1.4-4.6-2.3-6.3-4.6C651.3,168.1,650.7,164.7,650.1,162.1z"/>
		<path class="st3" d="M775.4,16c-0.3-1.1-1.4-2.6-2.9-2.3c-13.4,0.6-25.7,7.4-36.5,14.8c-12,8-22.8,17.7-34.2,26.5
			c-13.1,10-24.5,20.8-34.8,33.7c-10.6,13.4-21.1,27.1-30.8,41.1c-0.6,0.6-0.3,1.1,0,1.7c-4.9,10-8.8,20-13.7,30
			c-4.6,9.4-10,19.1-17.4,26.8c-11.4-3.7-24,1.4-32.8,8.6c-10.8,8.6-18.3,20.8-25.1,32.5c-6.8,11.7-13.1,24-21.1,35.1
			c-5.4,7.4-13.4,14.8-23.4,12c-2.9-0.8-5.7-1.7-8.3-3.1c-0.8-0.3-1.7,0.8-1.1,1.4c2,2,4,3.7,6,4.9c-0.6,0-0.8-0.3-1.4-0.3
			c-0.3,0-0.6,0.3-0.3,0.6c9.1,10,25.4,14,38.5,14.5c14.5,0.6,29.1-2.6,41.9-9.1c12.8-6.6,23.7-16.5,31.1-29.1
			c6.8-11.4,12.3-28.2,9.4-41.9c0.3,0,0.6-0.3,0.8-0.6c18.3-15.1,35.7-32,57.9-41.9c-1.7,0.3-3.4,0.6-5.4,1.1c0-0.3-0.3-0.3-0.3-0.3
			c-2.3-0.6-4-1.1-6-2.6c-2.3-1.7-4-4.3-5.4-6.8c0-0.3-0.3,0-0.3,0.3c1.7,4,5.1,9.1,10,10.3c-7.1,2-14,5.7-20.5,9.7
			c-6.3-1.7-8.3-6.8-8.8-12.8c0-0.6-0.8-0.6-0.8,0c-0.3,5.7,1.4,13.7,7.7,14.3c-3.7,2.6-7.4,5.1-10.8,8v-0.3
			c-0.8-1.4-2.3-2.3-3.1-3.4c-1.7-2-2.3-4.6-2-7.1c0-1.1-1.7-1.1-1.7,0c-0.3,2.6,0,5.1,1.1,7.4c0.8,2,2.6,4.3,4.9,4.9
			c-3.1,2.6-6.3,5.4-9.4,8c-0.8-0.3-1.7-0.6-2.6-1.4c-2-1.7-2.3-4.9-2.3-7.4c0-0.6-1.1-0.8-1.1,0c-0.3,2.9,0,6,1.7,8.3
			c0.6,0.8,1.4,1.4,2.3,2.3c-1.4,1.1-2.6,2.3-4,3.4c-2.6,0-5.1-0.3-7.4-2c-1.7-1.1-2.9-3.1-3.7-4.9c-0.8-1.4-1.7-2.6-2.3-4
			c2.9,0.3,4.3-2,4-4.3c6.8-7.4,11.7-16.5,16-25.7c5.1-10.6,9.7-22.3,12.6-33.9c0.3,0,0.3-0.3,0.6-0.3
			c11.4-10.8,20.3-24.3,30.2-36.2c10.3-12.6,21.1-24.5,34.2-33.9c10.8-8,20.8-16.8,31.7-24.8c10.3-7.4,22.5-15.7,35.4-17.1
			c1.4,6,2,12,1.7,18c0,0,0,0-0.3,0.3c-3.4,4.9-5.1,10.6-8,15.7c-2.9,5.7-6.3,11.4-9.4,17.1c-7.1,12-14.8,23.7-23.7,34.5
			c-1.4,1.7-2.9,3.4-4.3,5.1c-15.1,13.7-31.7,26.5-46.2,40.8c-0.8,0.6-2,1.1-3.1,1.7c0,0,0-0.3-0.3-0.3c-1.1-1.4-2.3-2.6-3.4-3.7
			c2.9-3.1,5.4-6,8.3-8.8c1.1,0.6,2.6,0.6,3.7,0.3c0.8-0.3,1.1-1.1,0.6-1.7c-0.6-0.6-0.8-0.8-1.4-1.4c2.6-2.6,5.1-5.1,7.7-7.4
			c2,1.4,4.6,2,6.6,1.7c1.1,0,1.1-1.4,0.3-2c-1.1-1.1-2.6-2-3.7-2.6c4.6-4.3,9.4-8.6,14.3-12.8c1.7,0.3,3.1,0,4.6-0.8
			c0.6-0.6,0.3-1.4,0-1.7c-0.3-0.3-0.6-0.3-0.8-0.6c4-3.7,8.3-7.4,12.3-11.4c0.6-0.6,1.4-1.1,2-2c1.4,0.3,2.9,0,4.6-0.3
			c0.8-0.3,1.1-1.4,0-2c-0.6-0.3-1.1-0.6-1.4-0.8c4.9-4.9,9.4-10,13.7-15.1c1.1,0,2,0,2.9-0.6c0.3-0.3,0.6-0.8,0.3-1.1
			c-0.3-0.6-0.6-0.8-0.8-1.1c1.7-2.3,3.4-4.6,5.1-7.1c1.1-1.7,2.3-3.1,3.4-4.9c0.6,0.3,1.7,0,1.7-0.8c0-0.6,0-1.1-0.3-1.7
			c6-9.7,11.1-20.8,12-31.7c0-1.1-1.7-1.4-2-0.3c-3.1,6.6-5.1,13.4-8,20c-1.1,2.6-2.6,5.4-4,8c-0.8-1.4-1.7-3.1-2.6-4.6
			c2-3.4,3.4-7.1,3.4-10.8c0-0.6-0.8-1.1-1.4-0.6c-3.7,4.3-6,10-9.1,14.8c-2.6,4-5.4,7.7-8.3,11.1c-0.8-2-1.4-4-1.4-6
			c0-1.4-2.3-1.1-2.3,0.3c0,3.1,0.3,6,1.4,8.6c-0.6,0.8-1.4,1.7-2,2.3c-3.7,4.3-7.7,8-11.7,12c-0.8,0-1.7,0.6-1.7,1.4
			c-4.3,4-8.6,8-12.6,12c-1.1,1.1-2.3,2.6-3.7,3.7c-0.3-2-0.6-4-0.6-5.7c0-1.7-2.3-1.7-2.6-0.3c-0.6,2.9-0.6,6,0.3,8.6
			c-4,4-8,8.3-12,12.3c-0.3-1.7-0.3-3.7-0.3-5.4c0-0.6-0.6-0.8-1.1-0.6c-2.3,2.6-2.9,6-2,9.1c-1.7,1.7-3.7,3.4-5.4,5.1
			c-1.1,1.1-2.6,2.3-3.7,3.4c-1.7-3.4-2.9-7.4-3.7-11.1c0-0.6-0.8-0.6-0.8,0c-0.6,4.9,0,9.1,2,13.4c-2.3,2-4.9,4-7.4,5.7
			c-0.3,0.3-0.6,0.6-1.1,0.6c-0.8-2.9-1.4-5.7-2-8.6c-0.3-1.1-2-1.1-2,0.3c0,3.1,0.3,6.6,1.1,10.3c-0.6,0.6-1.1,1.1-1.7,1.7
			c-0.3,0.6-0.3,1.4-0.3,2c0,2-1.1,3.7-2.6,4.9c-4.6-5.7-9.4-11.7-15.4-15.7c-1.4-0.8-3.1,0.6-2.3,2.3c3.7,7.1,9.1,13.4,14.3,19.7
			c4.9,6,10.3,15.1,17.7,18.3c1.1,0.6,2.3,0,3.1-0.6c1.7-1.4,1.1-3.4,0-4.9c5.7-6.6,12-12.6,18.5-18.3c12.6-7.7,24-18.3,33.7-29.4
			c6-5.4,12-11.1,17.7-17.1C766.2,78.5,785,48.8,775.4,16z M603,253.4c-2,3.4-4.3,6.6-6.8,9.7c4.3-6,8-12.3,11.1-18.8
			c0.6-1.4,1.1-2.9,1.7-4C607.6,244.5,605.6,249.1,603,253.4z M610.2,208.6L610.2,208.6c1.1,0.8,2.6,1.7,3.7,2
			c-0.6,0.3-0.8,0.8-0.8,1.4s0,0.8-0.3,1.4c-0.3,0-0.8,0-0.8,0.6c-1.4,3.7-3.4,7.4-4.9,11.4c-1.7,4.6-3.4,9.1-5.1,13.7
			c-4,9.1-9.1,17.4-15.4,25.1c-6.3,7.4-14,13.4-23.1,16.8c-10,3.7-20.8,3.7-31.1,2c-0.6,0-0.6,0.6-0.3,0.8c4.6,2.3,8.8,3.4,13.4,4.3
			c-2.6,0.3-4.9,0.3-7.4,0.3c-6.8,0-13.7-0.8-20.3-2.6c-3.4-0.8-6.6-2-10-3.1c4,0.6,8.3-0.3,12.3-2.9c10.3-6,17.1-17.1,23.1-27.1
			c7.7-12.3,14-25.1,22.5-36.5c7.1-9.4,16.3-19.1,28.5-20.5c3.1-0.3,6.3,0,9.4,0.3c0.3,0,0.6,0,0.6,0c0,1.1-0.3,2.6,0,3.4
			c0,0.6,0.6,1.4,0.8,2c-0.3,0-0.8,0-1.1,0.3c-15.1,6.3-24.5,20-33.1,33.7c-4.3,7.1-8.8,14.3-14.5,20.3c-4,4-8.6,6.8-13.4,9.1
			c6.6-11.4,13.7-22.5,22-33.1c5.1-6.6,10.8-12.8,17.1-18.3c6.3-5.4,13.1-8,20.3-12c2.3-1.1,1.1-4.3-1.1-4.3
			c-7.4,0.3-14.8,5.7-20.5,10c-6.8,5.4-12.8,12-18.3,18.8c-9.4,12-17.4,26-22.5,40.2c-2.3,1.1-4.6,2.3-7.1,3.7c-0.8,0.6-0.8,2,0.3,2
			c16.8,2,31.4-14.8,39.9-27.1c9.4-13.4,16.8-29.1,32.2-36.2c-4.6,6-7.7,13.7-11.1,20.3c-4.9,9.1-10,18-16,26
			c-5.7,7.7-12.6,14.5-21.4,19.1c-4.3,2-8.6,3.4-13.1,4.3c-5.1,0.8-10.3-0.3-15.7-0.6c-0.3,0-0.6,0.6-0.3,0.6
			c18.3,10.3,38.5-2,50.5-15.4c7.1-8,12.8-17.4,18.3-26.8C601.3,227.4,607.3,218,610.2,208.6z M748.5,58.5c0.6-0.8,1.1-2,1.7-2.9
			c0.3,0.8,0.6,1.4,0.8,2.3c0.3,0.8,0.8,2,1.4,2.9c-1.4,2.3-3.1,4.9-4.6,7.1c-1.4,2.3-3.1,4.3-4.9,6.3c-1.4-0.8-2.6-1.7-3.7-2.6
			c0,0,0,0-0.3-0.3C742.8,67.4,746,63.1,748.5,58.5z M736.6,74.8l0.3-0.3c0.8,1.1,2.3,2.3,3.7,3.1c-4.3,5.1-8.8,10.3-13.7,14.8
			c-0.3-0.3-0.6-0.3-0.8-0.6c-1.4-0.8-2.3-2.3-2.9-3.7C727.7,83.9,732.3,79.4,736.6,74.8z M709.5,101.3c3.4-3.7,7.4-7.1,11.1-10.6
			c0.6,1.4,1.4,2.6,2.6,3.7c0.3,0.3,0.6,0.6,0.8,0.8c-1.1,1.1-2.6,2.6-4,3.7c-3.7,3.4-7.1,6.8-10.8,10.3c-1.1-0.3-2.6-0.8-3.7-2
			c-0.3-0.3-0.6-0.6-0.8-1.1C706.3,104.5,708,103,709.5,101.3z M702.3,109c0.3,0.3,0.6,0.6,0.8,0.8c0.8,0.8,1.7,1.7,3.1,2.6
			c-4.3,4-8.8,8.3-13.1,12.3c-0.8-0.8-1.7-1.7-2.6-2.9c0-0.3-0.3-0.3-0.3-0.6C694.1,117.3,698,113,702.3,109z M681.2,129.3
			c2-1.7,4-3.4,5.7-5.1c0.8,1.4,1.7,2.6,2.9,3.4c-2.6,2.6-5.1,5.4-7.7,8.3c0,0-0.3,0-0.3-0.3c-1.4-0.8-2.9-2-3.7-3.4
			C678.9,131.3,680.1,130.4,681.2,129.3z M666.7,140.1c2.9-1.7,5.7-3.7,8.6-5.7c1.1,1.7,2.6,3.1,4.3,4.6c-2.6,2.9-5.1,6-7.4,9.1
			c-2-1.7-3.7-3.4-5.1-5.7c-0.3-0.6-0.6-1.1-0.8-1.7C666.4,140.4,666.4,140.1,666.7,140.1z M662.4,153.5c-1.7-2-3.4-3.7-4.9-5.7
			c1.1-1.1,2.3-2.3,3.4-3.4c0.6-0.8,1.1-1.4,2-1.7c1.4,3.7,3.4,7.4,6.3,9.7c-1.1,1.7-2.3,3.4-3.4,5.1
			C664.7,155.8,663.5,154.7,662.4,153.5z M670.4,161.5c-1.4-1.4-2.6-2.9-4-4c1.1-1.7,2.6-3.1,4-4.9c1.1,0.8,2.6,1.4,4.3,1.7
			c-2.3,1.1-4.6,2.6-6.8,3.4c-0.3,0,0,0.6,0.3,0.6c2.6-0.6,4.9-1.1,7.1-2C673.5,158.1,671.8,159.8,670.4,161.5z M756.5,77.4
			c0.6-1.1,1.4-2.6,2-3.7c3.1-6,6-12,8.8-18.3c0.8-2,1.7-3.7,2.6-5.7C767.1,59.4,762.5,68.8,756.5,77.4z"/>
	</g>
</g>
</svg>
