<?xml version="1.0" encoding="utf-8"?>
<!-- Generator: Adobe Illustrator 23.0.3, SVG Export Plug-In . SVG Version: 6.00 Build 0)  -->
<svg version="1.1" id="Layer_1" xmlns="http://www.w3.org/2000/svg" xmlns:xlink="http://www.w3.org/1999/xlink" x="0px" y="0px"
	 viewBox="0 0 100 125" style="enable-background:new 0 0 100 125;" xml:space="preserve">
<style type="text/css">
	.st0{fill:#F9F7ED;}
	.st1{font-family:'Bauhaus93';}
	.st2{font-size:14px;}
</style>
<path d="M49.1,71.3c-4.2,0-8.2-2.1-10.5-5.6c-1.3,0.1-2.5-0.1-3.7-0.7c-0.9,0.4-2.4,0.9-3.9,0.9c-3.8,0.1-7.4-2-9.3-5.4
	c-1.2,0.4-2.3,0.5-3.3,0.5c-6.6,0-12-5.4-12-11.9c0-5.4,3.1-9.8,7.9-11.3c0-0.2,0-0.3,0-0.4c0-3.6,3-6.6,6.6-6.6
	c0.4,0,0.9,0,1.4,0.1C24.1,28.4,27,27,30,27c2.5,0,4.9,1,6.7,2.7c1.3-1.1,3-1.7,4.7-1.7c1.3,0,2.5,0.6,3.2,1c2.4-3,6-4.8,9.9-4.8
	c4.3,0,8.2,2.1,10.6,5.7c3.7-1,7.8,0.1,10.5,2.7c0.2-0.1,0.3-0.2,0.5-0.3c1.2-0.6,2.5-1,3.8-1c4,0,7.3,3,7.8,7.1
	c3.4,0.8,6.4,3.1,7.9,6.3c1.5,3.3,1.2,6.9-0.8,10.3c-1.9,3.1-5.4,5.1-9.2,5.1h-0.1c-2.1,0-3.8-0.4-5.2-1.3c-1.3,0.4-2.4,0.5-3.7,0.2
	c-1.3,3.6-4.2,6.5-7.8,7.7c-3.1,1.1-6.4,0.9-9.4-0.5C56.9,69.4,53.1,71.3,49.1,71.3z"/>
<text transform="matrix(1 0 0 1 27.6598 51.7216)" class="st0 st1 st2">Internet</text>
</svg>
