<?xml version="1.0" encoding="utf-8"?>
<!-- Generator: Adobe Illustrator 23.0.3, SVG Export Plug-In . SVG Version: 6.00 Build 0)  -->
<svg version="1.1" id="Layer_1" xmlns="http://www.w3.org/2000/svg" xmlns:xlink="http://www.w3.org/1999/xlink" x="0px" y="0px"
	 viewBox="0 0 800 800" style="enable-background:new 0 0 800 800;" xml:space="preserve">
<style type="text/css">
	.st0{fill:#F9F7ED;}
</style>
<g>
	<path d="M166.9,327.3"/>
	<path d="M144,237"/>
	<rect x="228.8" y="215.8" class="st0" width="339.2" height="339.2"/>
</g>
<g>
	<g>
		<path d="M566,567.5H231.2c-6.5,0-11.7-5.2-11.7-11.7V221c0-6.5,5.2-11.7,11.7-11.7H566c6.5,0,11.7,5.2,11.7,11.7v334.8
			C577.7,562.2,572.4,567.5,566,567.5z M242.7,544.1h311.5V232.6H242.7V544.1z"/>
		<path d="M305.8,227.5c-6.5,0-11.7-5.2-11.7-11.7V107.2c0-3.4-5.3-7.3-12.5-7.3c-6.5,0-11.7-5.2-11.7-11.7s5.2-11.7,11.7-11.7
			c19.7,0,35.8,13.8,35.8,30.7v108.6C317.3,222.2,312.2,227.4,305.8,227.5z"/>
		<path d="M435.4,227.5c-6.5,0-11.7-5.2-11.7-11.7V107.2c0-16.9,16-30.7,35.8-30.7c6.5,0,11.7,5.2,11.7,11.7s-5.2,11.7-11.7,11.7
			c-7.1,0-12.5,3.8-12.5,7.3v108.6C447,222.2,441.9,227.4,435.4,227.5z"/>
		<path d="M370.6,232.6c-6.5,0-11.7-5.2-11.7-11.7v-83c0-6.5,5.2-11.7,11.7-11.7s11.7,5.2,11.7,11.7v83c0,3.1-1.2,6.1-3.4,8.3
			C376.7,231.3,373.7,232.6,370.6,232.6z"/>
		<path d="M500.3,232.6c-6.5,0-11.7-5.2-11.7-11.7v-83c0-6.5,5.2-11.7,11.7-11.7s11.7,5.2,11.7,11.7v83
			C512,227.3,506.7,232.6,500.3,232.6z"/>
		<path d="M679.7,307.2H571c-6.5,0-11.7-5.2-11.7-11.7s5.2-11.7,11.7-11.7h108.7c3.5,0,7.3-5.3,7.3-12.5c0-6.5,5.2-11.7,11.7-11.7
			s11.7,5.2,11.7,11.7C710.3,291.2,696.6,307.2,679.7,307.2z"/>
		<path d="M698.6,461c-6.5,0-11.7-5.2-11.7-11.7c0-7.1-3.9-12.5-7.3-12.5H571c-4.2,0-8-2.2-10.1-5.8s-2.1-8.1,0-11.7s6-5.8,10.1-5.8
			h108.7c16.9,0,30.7,16,30.7,35.8c0,3.1-1.2,6.1-3.4,8.4C704.8,459.8,701.8,461,698.6,461z"/>
		<path d="M649,372.2h-83c-6.5,0-11.7-5.2-11.7-11.7s5.2-11.7,11.7-11.7h83c6.5,0,11.7,5.2,11.7,11.7S655.4,372.2,649,372.2z"/>
		<path d="M649,501.8h-83c-6.5,0-11.7-5.2-11.7-11.7s5.2-11.7,11.7-11.7h83c6.5,0,11.7,5.2,11.7,11.7S655.4,501.8,649,501.8z"/>
		<path d="M515.3,700.1c-19.7,0-35.8-13.8-35.8-30.7V560.8c0-6.5,5.2-11.7,11.7-11.7s11.7,5.2,11.7,11.7v108.7
			c0,3.4,5.4,7.3,12.5,7.3c6.5,0,11.7,5.2,11.7,11.7s-5.2,11.7-11.7,11.7L515.3,700.1z"/>
		<path d="M337.4,700.1c-6.5,0-11.7-5.2-11.7-11.7s5.2-11.7,11.7-11.7c7.1,0,12.5-3.9,12.5-7.3V560.8c0-6.5,5.2-11.7,11.7-11.7
			s11.7,5.2,11.7,11.7v108.7C373.3,686.4,357.2,700.1,337.4,700.1z"/>
		<path d="M426.4,650.5c-3.1,0-6.1-1.2-8.3-3.4s-3.4-5.2-3.4-8.3v-83c0-6.5,5.2-11.7,11.7-11.7s11.7,5.2,11.7,11.7v83
			C438.1,645.2,432.8,650.5,426.4,650.5z"/>
		<path d="M296.7,650.5c-3.1,0-6.1-1.2-8.3-3.4c-2.2-2.2-3.4-5.2-3.4-8.3v-83c0-6.5,5.2-11.7,11.7-11.7s11.7,5.2,11.7,11.7v83
			C308.4,645.2,303.2,650.5,296.7,650.5z"/>
		<path d="M98.4,516.8c-6.5,0-11.7-5.2-11.7-11.7c0-19.7,13.8-35.8,30.7-35.8H226c6.5,0,11.7,5.2,11.7,11.7s-5.2,11.7-11.7,11.7
			H117.3c-3.4,0-7.3,5.3-7.3,12.5C110,511.6,104.8,516.8,98.4,516.8z"/>
		<path d="M226,363H117.3c-16.9,0-30.7-16-30.7-35.8c0-4.2,2.2-8,5.8-10.1c3.6-2.1,8.1-2.1,11.7,0s5.8,6,5.8,10.1
			c0,7.1,3.9,12.5,7.3,12.5H226c6.5,0,11.7,5.2,11.7,11.7s-5.2,11.7-11.7,11.7L226,363L226,363z"/>
		<path d="M231,427.9h-83c-6.5,0-11.7-5.2-11.7-11.7s5.2-11.7,11.7-11.7h83c6.5,0,11.7,5.2,11.7,11.7S237.5,427.9,231,427.9z"/>
		<path d="M231,298.2h-83c-6.5,0-11.7-5.2-11.7-11.7s5.2-11.7,11.7-11.7h83c6.5,0,11.7,5.2,11.7,11.7S237.5,298.2,231,298.2z"/>
		<path d="M491.2,371.2c-3.3-0.1-6.4-1.5-8.7-3.9c-13.6-13.6-30.4-23.7-48.8-29.3c-42.2-13.1-88.1-1.8-119.5,29.3
			c-2.2,2.3-5.3,3.7-8.5,3.8s-6.3-1.2-8.6-3.4c-2.3-2.3-3.6-5.4-3.5-8.6s1.4-6.3,3.8-8.5c21-21.4,48.3-35.3,77.9-39.8
			c47.7-7.1,89.1,6.2,123.9,39.6c3.3,3,4.6,7.5,3.5,11.8s-4.5,7.6-8.8,8.6C493.1,371,492.2,371.1,491.2,371.2z"/>
		<path d="M400.9,352.2c25.5,0.5,49.9,10.8,67.9,28.9c3.1,3,4.4,7.4,3.4,11.5s-4.3,7.5-8.5,8.6s-8.6-0.1-11.6-3.2
			c-15.8-15.8-37.7-23.8-60-21.7c-17.8,1.3-34.6,8.9-47.2,21.6c-3,3.1-7.4,4.4-11.5,3.4c-4.2-1-7.5-4.3-8.6-8.4
			c-1.1-4.1,0.1-8.6,3.2-11.6c12.4-12.5,28-21.4,45-25.8C382,353.1,391.5,352,400.9,352.2z"/>
		<path d="M398.4,394.6c15.2-0.1,29.9,6,40.6,16.8c3,3,4.2,7.4,3.1,11.4c-1.1,4.1-4.3,7.3-8.4,8.4c-4.1,1.1-8.5,0-11.5-3
			c-13.1-13-34.1-13-47.3-0.1c-2.1,2.2-5,3.5-8.1,3.7c-4.9,0.2-9.5-2.6-11.4-7.1c-2-4.5-1-9.8,2.5-13.2
			C368.6,400.7,383.2,394.6,398.4,394.6z"/>
		<path d="M398.4,436.5c8.6,0,15.6,6.9,15.6,15.5c0,8.6-6.9,15.6-15.5,15.7s-15.6-6.8-15.7-15.4c0-4.1,1.6-8.2,4.5-11.1
			C390.3,438.2,394.3,436.6,398.4,436.5z"/>
	</g>
</g>
</svg>
