<?xml version="1.0" encoding="utf-8"?>
<!-- Generator: Adobe Illustrator 23.0.3, SVG Export Plug-In . SVG Version: 6.00 Build 0)  -->
<svg version="1.1" id="Layer_1" xmlns="http://www.w3.org/2000/svg" xmlns:xlink="http://www.w3.org/1999/xlink" x="0px" y="0px"
	 viewBox="0 0 800 800" style="enable-background:new 0 0 800 800;" xml:space="preserve">
<style type="text/css">
	.st0{fill:#F9F7ED;}
</style>
<g id="XMLID_1_">
	<g>
		<circle class="st0" cx="400" cy="391.1" r="417.1"/>
	</g>
</g>
<g>
	<g>
		<rect x="640" y="647.4" width="21.3" height="21.3"/>
		<circle cx="373.5" cy="562.1" r="10.7"/>
		<rect x="149.6" y="647.4" width="21.3" height="21.3"/>
		<rect x="149.6" y="540.8" width="127.9" height="42.6"/>
		<rect x="384.2" y="455.5" width="42.6" height="21.3"/>
		<path d="M426.8,220.9c0-11.8-9.5-21.3-21.3-21.3s-21.3,9.6-21.3,21.3v213.2h42.6L426.8,220.9L426.8,220.9z"/>
		<circle cx="629.4" cy="562.1" r="10.7"/>
		<path d="M672,498.1H139c-17.7,0-32,14.3-32,32v64c0,17.7,14.3,32,32,32h533c17.7,0,32-14.3,32-32v-64
			C704,512.4,689.7,498.1,672,498.1z M298.9,604.7H128.3v-85.3h170.6L298.9,604.7L298.9,604.7z M373.5,594.1c-17.7,0-32-14.3-32-32
			s14.3-32,32-32s32,14.3,32,32S391.2,594.1,373.5,594.1z M458.8,594.1c-17.7,0-32-14.3-32-32s14.3-32,32-32s32,14.3,32,32
			S476.5,594.1,458.8,594.1z M544.1,594.1c-17.7,0-32-14.3-32-32s14.3-32,32-32s32,14.3,32,32S561.8,594.1,544.1,594.1z
			 M629.4,594.1c-17.7,0-32-14.3-32-32s14.3-32,32-32s32,14.3,32,32S647,594.1,629.4,594.1z"/>
		<circle cx="544.1" cy="562.1" r="10.7"/>
		<circle cx="458.8" cy="562.1" r="10.7"/>
		<path d="M249.6,141c-33.5,33-33.9,86.9-0.9,120.4c0,0,0,0,0.1,0c4.1,4.2,10.9,4.2,15.1,0.1s4.2-10.9,0.1-15.1l0,0
			c-24.8-25.1-24.5-65.5,0.5-90.3c0,0,0-0.1,0.1-0.1c4-4.4,3.6-11.1-0.7-15.1C259.9,137.5,253.8,137.4,249.6,141L249.6,141z"/>
		<path d="M186.8,111.6c-49.7,50.2-49.4,131.1,0.7,180.9c4.1,4.2,10.9,4.3,15.1,0.2s4.3-10.9,0.2-15.1c-0.1-0.1-0.2-0.2-0.3-0.3
			c-41.8-41.5-42-108.9-0.6-150.7c4.1-4.2,4.1-10.9-0.1-15.1S190.9,107.4,186.8,111.6L186.8,111.6L186.8,111.6z"/>
		<path d="M326.3,171.6c-4.2-4.2-10.9-4.2-15.1,0c-16.6,16.7-16.5,43.7,0.2,60.3l0,0c4,4.3,10.8,4.5,15.1,0.4s4.5-10.8,0.4-15.1
			c-0.1-0.2-0.3-0.3-0.5-0.5c-8.4-8.3-8.4-21.8-0.1-30.1l0,0C330.5,182.4,330.5,175.7,326.3,171.6z"/>
		<path d="M546.4,156.2c25.1,24.7,25.4,65.1,0.7,90.3c0,0,0,0.1-0.1,0.1c-4.1,4.2-4.1,11,0.1,15.1c4.2,4.1,11,4.1,15.1-0.1
			c33-33.5,32.7-87.4-0.8-120.4c0,0,0,0,0-0.1c-4-4.4-10.7-4.7-15.1-0.7c-4.3,4-4.7,10.7-0.7,15.1
			C545.9,155.7,546.2,156,546.4,156.2L546.4,156.2z"/>
		<path d="M609.1,126.6c41.4,41.8,41.2,109.2-0.6,150.7c-4.3,4.1-4.4,10.8-0.3,15.1s10.8,4.4,15.1,0.3c0.1-0.1,0.2-0.2,0.3-0.3
			c50.1-49.8,50.4-130.7,0.7-180.9c-4.2-4.2-10.9-4.2-15.1-0.1C605,115.7,605,122.4,609.1,126.6L609.1,126.6z"/>
		<path d="M484.4,231.9c4.1,4.2,10.9,4.2,15.1,0.1c16.7-16.6,16.8-43.6,0.2-60.3l0,0c-4.1-4.2-10.9-4.2-15.1-0.1s-4.2,10.9-0.1,15.1
			c8.3,8.4,8.3,21.9-0.1,30.1l0,0C480.3,221,480.3,227.7,484.4,231.9z"/>
	</g>
</g>
</svg>
