<?xml version="1.0" encoding="utf-8"?>
<!-- Generator: Adobe Illustrator 23.0.3, SVG Export Plug-In . SVG Version: 6.00 Build 0)  -->
<svg version="1.1" id="Layer_1" xmlns="http://www.w3.org/2000/svg" xmlns:xlink="http://www.w3.org/1999/xlink" x="0px" y="0px"
	 viewBox="0 0 800 800" style="enable-background:new 0 0 800 800;" xml:space="preserve">
<style type="text/css">
	.st0{fill:#F9F7ED;}
</style>
<g>
	<path d="M-68.4,263"/>
	<path d="M-118,50"/>
	<path class="st0" d="M131.9,330.9c15.6-7.3,38.8-15,64.2-9.8c37.1,7.7,57.7,38.7,71.7,30.7c7.9-4.5,2.3-14.9,12.8-38.7
		c9.5-21.4,17.7-21.3,21.7-36.9c4.2-16.5-2.9-24.6-6.5-48.2c-3.6-23.8-0.5-42.3,2.3-58.4c8-47,34.4-80.6,45.4-93.1
		c7.1-8.2,60.1-66.8,145.1-67.8C579,7.6,654.7,72.3,678.5,141.8c0.9,2.6,16.7,50.4,7.1,100.5c-5.1,26.8-15.4,47.2-15.4,47.2
		c-9,17.9-12.4,16.3-13.8,24.3c-4.2,24.6,29,37.9,45.3,78.1c6.8,16.7,8.2,32,8.3,42.4c-0.1,11.8-2,36.2-17.6,60.8
		c-27.4,43.1-74.7,51.4-82.7,52.6c-148.8-0.1-297.7-0.3-446.5-0.4c-53.8-9.8-93.7-54.2-96.9-106C63.5,395.7,89.4,351.9,131.9,330.9z
		"/>
</g>
<path d="M576.2,300.1h5.8c8.3-1.3,18.5-1.3,27.6,0l0,0l0,0c0.4,0,1,0,1.5,0c16,1.9,31.2,6.4,45.3,13.7c1.9-2.9,4-5.6,5.6-8.7
	c16-27.4,25.1-57.9,26.8-89.1H585C584.5,245.5,581.4,273.9,576.2,300.1z"/>
<path d="M446.6,13.9c-45.9,11-86.8,38-114.9,76.8h80.4C420.9,57.5,432.5,31.5,446.6,13.9z"/>
<path d="M407.6,111.5h-88.7c-14.1,26-22.4,54.6-23.9,83.9h103.9C399.3,166.1,402.4,137.7,407.6,111.5z"/>
<path d="M550.1,90.7C537,43.4,516,11.6,495.2,8.7c-1,0-2.3-0.2-3.3-0.2s-2.1,0.2-3.3,0.2c-21,3.1-41.8,34.7-54.8,82H550.1z"/>
<path d="M652,90.7c-27.8-38.6-69-65.8-114.6-76.9c14.1,17.6,25.8,43.6,34.3,76.8C571.7,90.7,652,90.7,652,90.7z"/>
<path d="M585.2,195.4H689c-1.7-29.3-9.8-57.9-23.9-83.9h-88.7C581.4,137.7,584.5,166.1,585.2,195.4z"/>
<path d="M654.5,336.4c-13.7-8.5-29.1-13.7-45.5-15.6h-25.8c-6.4,0.6-12.3,1.7-17.5,3.3c-17.2,4.8-33.2,13.5-46.5,25.5
	c-2.9,2.7-7.1,3.5-10.8,1.9c-3.7-1.5-6.2-5-6.4-8.9c-0.8-10-2.7-19.5-6-28.9c-13.5-39.5-47.4-68.3-88.3-75.2l0,0l0,0
	c-6.6-1-13.1-1.7-19.7-1.7c-33,0-64.2,14.3-85.8,39.3l0,0c-16.4,18.9-26.2,42-28,66.7c-0.2,4-2.9,7.5-6.4,8.9
	c-3.7,1.5-7.9,0.6-10.8-2.1c-21-19.1-48.2-29.7-76.6-29.7c-62.9,0-114.2,51.3-114.2,114.2s51.3,114.2,114.2,114.2h415.4
	c62.9,0,114.2-51.3,114.2-114.2C710,394.6,688.8,357,654.5,336.4z"/>
<path d="M388.1,216.2h-93.3c0.6,11.2,2.1,22.4,4.8,33.2C323.9,228.2,355.3,216.2,388.1,216.2z"/>
<path d="M398.7,296.7h-10.6c3.5,0,7.1,0.6,10.6,1C398.7,297.3,398.7,297.1,398.7,296.7z"/>
<path d="M419.4,220.3c44.7,10.6,81,43,96,86.8c1.9,5.2,3.3,10.4,4.6,15.6c10.4-7.1,22-12.5,33.8-16.4c6.4-27.8,10-58.8,10.6-90.4
	h-145C419.4,217.6,419.4,218.9,419.4,220.3z"/>
<path d="M555.1,111.5H428.8c-5.6,26-8.7,54.4-9.4,83.9h144.8C563.8,165.9,560.7,137.5,555.1,111.5z"/>
</svg>
