<?xml version="1.0" encoding="utf-8"?>
<!-- Generator: Adobe Illustrator 23.0.3, SVG Export Plug-In . SVG Version: 6.00 Build 0)  -->
<svg version="1.1"
	 id="Layer_1" xmlns:cc="http://creativecommons.org/ns#" xmlns:dc="http://purl.org/dc/elements/1.1/" xmlns:inkscape="http://www.inkscape.org/namespaces/inkscape" xmlns:rdf="http://www.w3.org/1999/02/22-rdf-syntax-ns#" xmlns:sodipodi="http://sodipodi.sourceforge.net/DTD/sodipodi-0.dtd" xmlns:svg="http://www.w3.org/2000/svg"
	 xmlns="http://www.w3.org/2000/svg" xmlns:xlink="http://www.w3.org/1999/xlink" x="0px" y="0px" viewBox="0 0 400 400"
	 style="enable-background:new 0 0 400 400;" xml:space="preserve">
<style type="text/css">
	.st0{fill:#F9F7ED;}
</style>
<g transform="translate(0,-952.36218)">
	<path d="M216.7,1072.4c-9.8,0-17.8,8-17.8,17.8c0,6.8,3.8,12.7,9.4,15.7l-9.7,30.6c-0.5,0-1-0.1-1.5-0.1c-7.5,0-14.1,3.4-18.7,8.7
		l-22.7-19.9c1.5-2.4,2.3-5.2,2.3-8.3c0-8.8-7.2-16-16-16c-8.8,0-16,7.2-16,16s7.2,16,16,16c3.2,0,6.2-0.9,8.7-2.6l23.7,20.7
		c-1.4,3.1-2.2,6.6-2.2,10.2c0,5.5,1.9,10.7,5,14.8l-20.6,20.6c-3.1-2.2-6.9-3.5-11-3.5c-10.7,0-19.5,8.8-19.5,19.5
		c0,10.7,8.8,19.5,19.5,19.5s19.5-8.8,19.5-19.5c0-4.1-1.3-7.9-3.5-11l20.6-20.6c4.2,3.1,9.3,5,14.9,5c5.1,0,9.8-1.5,13.7-4.1
		l9.7,10.9c-2.4,3-3.8,6.8-3.8,11c0,9.8,8,17.8,17.8,17.8c9.8,0,17.8-8,17.8-17.8s-8-17.8-17.8-17.8c-3.1,0-5.9,0.8-8.4,2.2l-9.9-11
		c3.6-4.3,5.9-9.9,5.9-16c0-2.3-0.3-4.5-0.9-6.5l38.9-12c2.6,3.7,6.8,6.1,11.6,6.1c7.8,0,14.2-6.4,14.2-14.2s-6.4-14.2-14.2-14.2
		s-14.2,6.4-14.2,14.2c0,0.5,0,1,0.1,1.4l-39.3,12.1c-2.9-4.7-7.3-8.3-12.6-10.2l9.5-30c0.5,0,1,0.1,1.5,0.1c9.8,0,17.8-8,17.8-17.8
		S226.4,1072.4,216.7,1072.4L216.7,1072.4z"/>
</g>
<path d="M49.8,109.7v16h64v-16H49.8z"/>
<path d="M113.8,65.7v-18c0-1.1-0.9-2-2-2h-60c-1.1,0-2,0.9-2,2v18H113.8z"/>
<path d="M49.8,89.7v16h64v-16H49.8z"/>
<path d="M49.8,129.7v10c0,1.1,0.9,2,2,2h60c1.1,0,2-0.9,2-2v-10H49.8z"/>
<path d="M49.8,69.7v16h64v-16H49.8z"/>
<path d="M259.3,279.8c-1.5,0-2.6,1.2-2.6,2.6v44.7c0,1.5,1.2,2.6,2.6,2.6h63.1c1.5,0,2.6-1.2,2.6-2.6v-44.7c0-1.5-1.2-2.6-2.6-2.6
	H259.3z M335.5,279.8c-1.5,0-2.6,1.2-2.6,2.7v7.8H367v-7.8c0-1.5-1.2-2.7-2.6-2.7H335.5z M332.9,295.6v7.9H367v-7.9H332.9z
	 M332.9,308.7v42c0,1.5,1.2,2.6,2.6,2.6h28.9c1.5,0,2.6-1.2,2.6-2.6v-42L332.9,308.7z M282.9,332.4c-3.9,3.9-7.9,10.5-7.9,10.5h31.5
	c0,0-3.9-6.6-7.9-10.5H282.9z"/>
<g id="XMLID_5_">
	<g>
		<circle class="st0" cx="349.9" cy="329.8" r="3.9"/>
	</g>
	<g>
	</g>
</g>
<g id="XMLID_4_">
	<g>
		<path class="st0" d="M319.7,290.3v28.9c0,2.9-2.4,5.3-5.3,5.3h-47.3c-2.9,0-5.3-2.4-5.3-5.3v-28.9c0-2.9,2.4-5.3,5.3-5.3h47.3
			C317.3,285.1,319.7,287.5,319.7,290.3z"/>
	</g>
	<g>
	</g>
</g>
<path d="M346,140.4c-10,0-18.7,1.7-24.8,4.5s-9.5,6.5-9.5,10.4v55.5c0,3.9,3.3,7.6,9.5,10.4s14.8,4.5,24.8,4.5
	c10,0,18.7-1.7,24.8-4.5c6.1-2.8,9.5-6.5,9.5-10.4v-55.5c0-3.9-3.3-7.6-9.5-10.4C364.7,142.1,356,140.4,346,140.4L346,140.4z"/>
<g id="XMLID_3_">
	<g>
		<path class="st0" d="M378.2,197.7v13c0,1.8-1,3.5-2.6,5c-1.6,1.5-3.9,2.8-6.7,4c-5.6,2.3-13.5,3.8-22.8,3.8s-17.2-1.5-22.8-3.8
			c-2.8-1.1-5.1-2.5-6.7-4c-1.6-1.5-2.7-3.2-2.7-5v-13l1.9,1.6c5.6,4.6,16.8,7.8,30.3,7.8c13.5,0,24.8-3.2,30.3-7.8L378.2,197.7z"/>
		<path class="st0" d="M378.2,179.3v13c0,1.8-1,3.5-2.6,5c-1.6,1.5-3.9,2.8-6.7,4c-5.6,2.3-13.5,3.9-22.8,3.9s-17.2-1.6-22.8-3.9
			c-2.8-1.1-5.1-2.5-6.7-3.9c-1.6-1.5-2.7-3.2-2.7-5v-13l1.9,1.6c5.6,4.6,16.8,7.8,30.3,7.8c13.5,0,24.8-3.2,30.3-7.8L378.2,179.3z"
			/>
	</g>
	<g>
	</g>
</g>
<g id="XMLID_2_">
	<g>
		<path class="st0" d="M378.2,160.8v13c0,1.8-1,3.5-2.6,5c-1.6,1.5-3.9,2.8-6.7,4c-5.6,2.3-13.5,3.9-22.8,3.9s-17.2-1.5-22.8-3.8
			c-2.8-1.1-5.1-2.5-6.7-4c-1.6-1.5-2.7-3.2-2.7-5v-13l1.9,1.6c5.6,4.6,16.8,7.8,30.3,7.8c13.5,0,24.8-3.2,30.3-7.8L378.2,160.8z"/>
	</g>
	<g>
	</g>
</g>
<g id="XMLID_1_">
	<g>
		<path class="st0" d="M375.6,150.3c1.6,1.5,2.6,3.2,2.6,5c0,1.8-1,3.5-2.6,5c-1.6,1.5-3.9,2.8-6.7,4c-5.6,2.3-13.5,3.8-22.8,3.8
			s-17.2-1.5-22.8-3.8c-2.8-1.1-5.1-2.5-6.7-4c-1.6-1.5-2.7-3.2-2.7-5c0-1.8,1-3.5,2.7-5c1.6-1.5,3.9-2.8,6.7-3.9
			c5.7-2.3,13.5-3.8,22.8-3.8s17.2,1.5,22.8,3.8C371.6,147.5,373.9,148.8,375.6,150.3z"/>
	</g>
	<g>
	</g>
</g>
<polygon points="187.3,95.4 248.4,114.2 248.4,39.4 187.3,20.6 "/>
<polygon points="273.2,29.4 273.2,29.3 214.6,12.7 192.2,18.3 250.2,36.2 "/>
<path d="M252,102.8l25.9-7.7V31.7L252,39.4C252,39.4,252,102.8,252,102.8z"/>
<g id="XMLID_7_">
	<g>
		<polygon class="st0" points="274.8,64.7 274.8,73 255.8,78.1 255.8,69.8 		"/>
		<polygon class="st0" points="274.8,54 274.8,62.3 255.8,67.4 255.8,59.1 		"/>
		<polygon class="st0" points="274.8,43.3 274.8,51.6 255.8,56.7 255.8,48.4 		"/>
		<path class="st0" d="M266.2,85.5c1.4,0,2.5,1.4,2.5,3.1s-1.1,3.1-2.5,3.1c-1.4,0-2.5-1.4-2.5-3.1S264.8,85.5,266.2,85.5z"/>
		<circle class="st0" cx="97.8" cy="57.7" r="6"/>
		<circle class="st0" cx="97.8" cy="77.7" r="6"/>
		<circle class="st0" cx="97.8" cy="97.7" r="6"/>
		<circle class="st0" cx="97.8" cy="117.7" r="6"/>
		<path class="st0" d="M85.8,57.7c1.1,0,2,0.9,2,2c0,1.1-0.9,2-2,2h-24c-1.1,0-2-0.9-2-2c0-1.1,0.9-2,2-2H85.8z"/>
		<path class="st0" d="M85.8,77.7c1.1,0,2,0.9,2,2c0,1.1-0.9,2-2,2h-24c-1.1,0-2-0.9-2-2c0-1.1,0.9-2,2-2H85.8z"/>
		<path class="st0" d="M85.8,97.7c1.1,0,2,0.9,2,2c0,1.1-0.9,2-2,2h-24c-1.1,0-2-0.9-2-2c0-1.1,0.9-2,2-2H85.8z"/>
		<path class="st0" d="M85.8,117.7c1.1,0,2,0.9,2,2c0,1.1-0.9,2-2,2h-24c-1.1,0-2-0.9-2-2c0-1.1,0.9-2,2-2H85.8z"/>
	</g>
	<g>
	</g>
</g>
<polygon points="277.9,98.3 252,106 252,114.2 277.9,106.5 "/>
<path d="M61.3,311.4l-2.5,11.7c-0.1,0.3,0,0.6,0.2,0.8c0.2,0.2,0.5,0.3,0.7,0.3h8.7h2.2h16.8c0.3,0,0.6-0.1,0.7-0.3
	c0.2-0.2,0.3-0.5,0.2-0.8l-2.6-11.7h19.3c4.6,0,8.4-3.8,8.4-8.4v-39.3c0-4.6-3.8-8.4-8.4-8.4h-63c-4.6,0-8.4,3.8-8.4,8.4V303
	c0,4.6,3.8,8.4,8.4,8.4H61.3z M74.8,305.2c0,0.7-0.6,1.2-1.2,1.2c-0.7,0-1.3-0.6-1.3-1.2c0-0.7,0.6-1.2,1.3-1.2
	C74.3,303.9,74.8,304.4,74.8,305.2z"/>
<path d="M103.5,331.5c-0.2-0.2-0.5-0.4-0.8-0.4h-58c-0.3,0-0.6,0.1-0.8,0.4l-7.5,10.6c-0.2,0.3-0.2,0.7-0.1,1
	c0.2,0.3,0.5,0.5,0.8,0.5h73c0.3,0,0.7-0.2,0.8-0.5c0.2-0.3,0.2-0.7-0.1-1L103.5,331.5z"/>
<path d="M124,331.7c-1.4-0.5-2.9-0.9-4.3-0.9c-2.9,0-5.1,1.2-5.9,3.3c-1.3,3.2,1.2,7,5.6,8.9c1.4,0.6,2.9,0.9,4.3,0.9
	c2.9,0,5.1-1.2,5.9-3.2C130.8,337.4,128.4,333.5,124,331.7z"/>
<g id="XMLID_6_">
	<g>
		<path class="st0" d="M123.3,333.4c3.3,1.4,5.4,4.3,4.5,6.4c-0.5,1.3-2.1,2.1-4.2,2.1c-1.1,0-2.4-0.3-3.5-0.7
			c-3.3-1.4-5.4-4.3-4.5-6.4c0.2-0.5,0.6-0.8,1-1.2c1.3,0.5,3.7,1.5,4.7,3.1c0.2,0.2,0.5,0.4,0.8,0.4c0.2,0,0.3-0.1,0.5-0.2
			c0.4-0.3,0.5-0.9,0.2-1.3c-0.9-1.3-2.3-2.2-3.6-2.9c0.2,0,0.3,0,0.5,0C120.9,332.7,122.1,332.9,123.3,333.4z"/>
		<path class="st0" d="M111.6,263.7v37.7H35.5v-37.7c0-3.6,2.9-6.6,6.5-6.6h63C108.7,257.2,111.6,260.1,111.6,263.7z"/>
		<polygon class="st0" points="102.3,332.9 108.4,341.7 39.1,341.7 45.3,332.9 		"/>
		<polygon class="st0" points="83.9,311.4 86.3,322.4 70.6,322.4 68.4,322.4 60.9,322.4 63.3,311.4 		"/>
		<path class="st0" d="M73.6,308.3c1.7,0,3.1-1.4,3.1-3.1c0-0.7-0.2-1.3-0.6-1.8h35.5c-0.2,3.5-3,6.3-6.5,6.3H73.6V308.3z"/>
		<path class="st0" d="M70.5,305.1c0,1.7,1.4,3.1,3.1,3.1v1.3H42.1c-3.5,0-6.3-2.8-6.5-6.3h35.5C70.7,303.8,70.5,304.5,70.5,305.1z"
			/>
	</g>
	<g>
	</g>
</g>
</svg>
